<svg width="36" height="36" viewBox="0 0 36 36" fill="none" xmlns="http://www.w3.org/2000/svg">
<g clip-path="url(#clip0_1_1415)">
<path d="M36 18C36 27.9411 27.9411 36 18 36C8.05887 36 0 27.9411 0 18C0 8.05887 8.05887 0 18 0C27.9411 0 36 8.05887 36 18Z" fill="#2B3894"/>
<path d="M23.5022 29.5543H2.71759C2.32925 29.5543 2.01447 29.2396 2.01447 28.8512V17.8818C2.01447 17.4935 2.32925 17.1787 2.71759 17.1787H23.5022C23.7523 17.1787 23.9835 17.3115 24.1095 17.5275L27.309 23.0122C27.4366 23.2311 27.4366 23.5018 27.309 23.7207L24.1095 29.2054C23.9835 29.4215 23.7523 29.5543 23.5022 29.5543Z" fill="#F76C57"/>
<path d="M4.53657 29.5543H2.71759C2.32925 29.5543 2.01447 29.2396 2.01447 28.8512V17.8818C2.01447 17.4935 2.32925 17.1787 2.71759 17.1787H4.53664C4.14831 17.1787 3.83352 17.4935 3.83352 17.8818V28.8512C3.83345 29.2395 4.14824 29.5543 4.53657 29.5543Z" fill="#E5554E"/>
<path d="M11.25 23.1914C11.25 22.9002 11.4861 22.6641 11.7773 22.6641H21.9727C22.2639 22.6641 22.5 22.9002 22.5 23.1914C22.5 23.4826 22.2639 23.7188 21.9727 23.7188H11.7773C11.4861 23.7188 11.25 23.4826 11.25 23.1914ZM21.9727 25.125H11.7773C11.4861 25.125 11.25 25.3611 11.25 25.6523C11.25 25.9436 11.4861 26.1797 11.7773 26.1797H21.9727C22.2639 26.1797 22.5 25.9436 22.5 25.6523C22.5 25.3611 22.2639 25.125 21.9727 25.125Z" fill="#FAA598"/>
<path d="M35.9046 15.1419L32.7052 20.6266C32.5792 20.8426 32.348 20.9754 32.0979 20.9754H11.3133C10.925 20.9754 10.6102 20.6606 10.6102 20.2723V9.30298C10.6102 8.91464 10.925 8.59985 11.3133 8.59985H32.0979C32.348 8.59985 32.5792 8.73267 32.7052 8.94867L35.9046 14.4333C36.0323 14.6523 36.0323 14.923 35.9046 15.1419Z" fill="#EAC23F"/>
<path d="M13.1306 20.9754H11.3115C10.9232 20.9754 10.6084 20.6606 10.6084 20.2723V9.30298C10.6084 8.91464 10.9232 8.59985 11.3115 8.59985H13.1306C12.7422 8.59985 12.4275 8.91464 12.4275 9.30298V20.2723C12.4275 20.6606 12.7422 20.9754 13.1306 20.9754Z" fill="#E1B91E"/>
<path d="M31.6406 14.7881C31.6406 15.0793 31.4045 15.3154 31.1133 15.3154H20.918C20.6267 15.3154 20.3906 15.0793 20.3906 14.7881C20.3906 14.4969 20.6267 14.2607 20.918 14.2607H31.1133C31.4045 14.2607 31.6406 14.4969 31.6406 14.7881ZM31.1133 16.7217H20.918C20.6267 16.7217 20.3906 16.9578 20.3906 17.249C20.3906 17.5403 20.6267 17.7764 20.918 17.7764H31.1133C31.4045 17.7764 31.6406 17.5403 31.6406 17.249C31.6406 16.9578 31.4045 16.7217 31.1133 16.7217Z" fill="#EDD578"/>
<path d="M26.5781 12.3271C26.5781 12.6184 26.342 12.8545 26.0508 12.8545H20.918C20.6267 12.8545 20.3906 12.6184 20.3906 12.3271C20.3906 12.0359 20.6267 11.7998 20.918 11.7998H26.0508C26.342 11.7998 26.5781 12.0359 26.5781 12.3271Z" fill="#FFF79F"/>
<path d="M8.48499 14.7881C8.48499 12.03 10.7537 9.80175 13.5267 9.86764C16.1288 9.92951 18.2539 12.045 18.3268 14.6468C18.3678 16.1106 17.7694 17.4354 16.7905 18.3624C16.6429 18.5022 16.4174 18.5192 16.2516 18.4015C15.4483 17.8317 14.4668 17.4967 13.4069 17.4967C12.3528 17.4967 11.3762 17.828 10.5754 18.3923C10.4017 18.5146 10.1659 18.4983 10.0121 18.3518C9.07125 17.4553 8.48499 16.1902 8.48499 14.7881Z" fill="#B4E7FD"/>
<path d="M16.1507 13.3583V16.4079H10.6295V13.3583C10.6295 11.9108 11.803 10.7373 13.2506 10.7373H13.5298C14.9773 10.7373 16.1507 11.9108 16.1507 13.3583Z" fill="#915041"/>
<path d="M13.2998 17.0688C12.4677 17.0688 11.7931 17.7434 11.7931 18.5756V18.8184C11.7931 19.1266 11.4678 19.3236 11.1926 19.1847C10.7466 18.9596 10.3397 18.6687 9.98438 18.3247C10.1038 17.612 10.7236 17.0688 11.4702 17.0688H13.2998Z" fill="#3342AE"/>
<path d="M16.8306 18.3247C15.9448 19.1822 14.7378 19.71 13.4075 19.71C12.5908 19.71 11.8207 19.5111 11.1428 19.1591V18.5756C11.1428 17.7434 11.8173 17.0688 12.6495 17.0688H15.3448C16.0914 17.0688 16.7112 17.612 16.8306 18.3247Z" fill="#3D4EC6"/>
<path d="M16.3126 14.3786V14.5732C16.3126 14.86 16.0971 15.1119 15.8109 15.1307C15.7448 15.1351 15.6811 15.1274 15.6217 15.1099C15.3579 15.8057 14.7756 16.345 14.0526 16.5495V17.2622C14.0526 17.6061 13.7931 17.9064 13.4499 17.9287C13.0738 17.9531 12.7611 17.6552 12.7611 17.2844V16.5495C12.0383 16.345 11.4559 15.8058 11.1921 15.1099C11.1326 15.1274 11.0689 15.1351 11.0028 15.1307C10.7167 15.1118 10.5012 14.86 10.5012 14.5732V14.3786C10.5012 14.0814 10.7421 13.8405 11.0393 13.8405V13.41C11.0393 12.9712 11.1587 12.5603 11.3667 12.2079C11.4399 12.084 11.584 12.021 11.7245 12.0522C12.2429 12.1674 12.8111 12.2309 13.4069 12.2309C14.0028 12.2309 14.5709 12.1674 15.0893 12.0521C15.2299 12.0209 15.374 12.0838 15.4472 12.2079C15.6552 12.5602 15.7746 12.9711 15.7746 13.4099V13.8404C16.0717 13.8405 16.3126 14.0815 16.3126 14.3786Z" fill="#E09380"/>
<path d="M15.7726 13.4097V14.2707C15.7726 15.3364 15.0685 16.2376 14.1002 16.5346C13.1318 16.2376 12.4277 15.3364 12.4277 14.2707V13.4097C12.4277 12.9432 12.5627 12.5083 12.7956 12.1416C13.3991 11.192 15.4403 12.1988 15.4571 12.2281C15.6578 12.5758 15.7726 12.9793 15.7726 13.4097Z" fill="#FAA68E"/>
<path d="M12.8902 14.1488C12.8902 14.3115 12.7582 14.4436 12.5954 14.4436H12.3006C12.1378 14.4436 12.0059 14.3116 12.0059 14.1488C12.0059 13.9859 12.1378 13.854 12.3006 13.854H12.5954C12.7582 13.854 12.8902 13.986 12.8902 14.1488ZM14.5114 13.854H14.2166C14.0538 13.854 13.9218 13.986 13.9218 14.1488C13.9218 14.3115 14.0538 14.4436 14.2166 14.4436H14.5114C14.6741 14.4436 14.8061 14.3116 14.8061 14.1488C14.8061 13.9859 14.6742 13.854 14.5114 13.854Z" fill="#915041"/>
<path d="M13.8483 15.2102V15.2397C13.8483 15.4839 13.6503 15.6819 13.4061 15.6819C13.1619 15.6819 12.9639 15.4839 12.9639 15.2397V15.2102C12.9639 15.1451 13.0167 15.0923 13.0818 15.0923H13.7303C13.7955 15.0924 13.8483 15.1452 13.8483 15.2102Z" fill="#FFF5F5"/>
<path d="M13.4075 11.0422C14.3043 11.0422 15.0871 11.5193 15.5052 12.2282C14.8787 12.4019 14.1649 12.5002 13.4075 12.5002C12.6501 12.5002 11.9362 12.4019 11.3098 12.2282C11.728 11.5193 12.5108 11.0422 13.4075 11.0422Z" fill="#915041"/>
<path d="M0 23.3662C0 20.6081 2.2687 18.3799 5.04176 18.4458C7.64381 18.5076 9.76894 20.6231 9.84178 23.2249C9.88277 24.6887 9.28441 26.0135 8.30552 26.9405C8.15787 27.0803 7.93237 27.0973 7.76658 26.9797C6.96333 26.4098 5.9817 26.0749 4.92188 26.0749C3.86782 26.0749 2.89118 26.4062 2.09039 26.9705C1.91672 27.0928 1.68089 27.0765 1.52712 26.9299C0.586266 26.0335 0 24.7683 0 23.3662H0Z" fill="#B4E7FD"/>
<path d="M7.66752 20.2058V23.1911H2.1463V21.9364C2.1463 20.4889 3.31975 19.3154 4.76734 19.3154H6.77715C7.26885 19.3154 7.66752 19.714 7.66752 20.2058Z" fill="#4C2C21"/>
<path d="M4.81476 25.6479C3.98269 25.6479 3.30811 26.3225 3.30811 27.1547V27.3975C3.30811 27.7057 2.98277 27.9027 2.70757 27.7638C2.26165 27.5387 1.85468 27.2478 1.49939 26.9038C1.61885 26.1911 2.23858 25.6479 2.98523 25.6479H4.81476Z" fill="#EAC23F"/>
<path d="M8.3457 26.9037C7.45983 27.7613 6.25285 28.2891 4.9226 28.2891C4.10592 28.2891 3.33579 28.0902 2.65784 27.7382V27.1547C2.65784 26.3225 3.33242 25.6479 4.16456 25.6479H6.85985C7.60643 25.6479 8.22624 26.191 8.3457 26.9037Z" fill="#E9CC5A"/>
<path d="M7.8277 22.9576V23.1523C7.8277 23.4391 7.61213 23.6909 7.32595 23.7098C7.25986 23.7141 7.19616 23.7065 7.13674 23.6889C6.873 24.3848 6.29067 24.9241 5.56772 25.1285V25.8412C5.56772 26.1851 5.3082 26.4854 4.965 26.5077C4.5889 26.5321 4.27622 26.2343 4.27622 25.8634V25.1285C3.55334 24.9241 2.97094 24.3848 2.7072 23.6889C2.64771 23.7065 2.58394 23.7141 2.51784 23.7098C2.23174 23.6909 2.01624 23.439 2.01624 23.1523V22.9576C2.01624 22.6604 2.25713 22.4195 2.55434 22.4195V21.989C2.55434 21.5502 2.67373 21.1393 2.88178 20.787C2.95498 20.663 3.09905 20.6 3.2396 20.6312C3.75802 20.7464 4.32614 20.81 4.92197 20.81C5.5178 20.81 6.08599 20.7465 6.60441 20.6312C6.74496 20.6 6.88903 20.6629 6.96223 20.787C7.17028 21.1393 7.28967 21.5502 7.28967 21.989V22.4195C7.58681 22.4196 7.8277 22.6605 7.8277 22.9576Z" fill="#A65D4E"/>
<path d="M7.28943 21.9888V22.8498C7.28943 23.9155 6.58532 24.8167 5.61697 25.1137C4.64863 24.8167 3.94452 23.9155 3.94452 22.8498V21.9888C3.94452 21.5223 4.07945 21.0874 4.31239 20.7207C4.91589 19.7711 6.95706 20.7779 6.97394 20.8072C7.17461 21.1549 7.28943 21.5584 7.28943 21.9888Z" fill="#B46E5A"/>
<path d="M5.3632 23.9649C5.3632 24.1277 5.23122 24.2598 5.06838 24.2598H4.77363C4.61086 24.2598 4.47888 24.1278 4.47888 23.9649C4.47888 23.8021 4.61086 23.6702 4.77363 23.6702H5.06838C5.23122 23.6702 5.3632 23.8022 5.3632 23.9649ZM4.40519 22.7269C4.40519 22.8897 4.27322 23.0217 4.11037 23.0217H3.81562C3.65285 23.0217 3.52087 22.8897 3.52087 22.7269C3.52087 22.564 3.65285 22.4321 3.81562 22.4321H4.11037C4.27322 22.4321 4.40519 22.5641 4.40519 22.7269ZM6.02639 22.4321H5.73164C5.56886 22.4321 5.43682 22.5641 5.43682 22.7269C5.43682 22.8897 5.56879 23.0217 5.73164 23.0217H6.02639C6.18916 23.0217 6.32114 22.8897 6.32114 22.7269C6.32114 22.564 6.18923 22.4321 6.02639 22.4321Z" fill="#915041"/>
<path d="M4.92131 19.6204C5.84156 19.6204 6.64496 20.0974 7.07407 20.8063C6.43113 20.98 5.69862 21.0783 4.92131 21.0783C4.14401 21.0783 3.41149 20.98 2.76855 20.8063C3.19767 20.0974 4.00106 19.6204 4.92131 19.6204Z" fill="#4C2C21"/>
</g>
<defs>
<clipPath id="clip0_1_1415">
<rect width="36" height="36" fill="white"/>
</clipPath>
</defs>
</svg>
