<svg width="36" height="36" viewBox="0 0 36 36" fill="none" xmlns="http://www.w3.org/2000/svg">
<g clip-path="url(#clip0_1_1390)">
<path d="M0 17.9998C0 8.06623 8.04656 0.0120744 17.9772 -0.000230273C27.8341 -0.0123943 35.9113 7.97904 35.9993 17.8354C36.0507 23.5985 33.3936 28.7429 29.2238 32.0728C28.953 32.289 28.5724 32.3082 28.2883 32.1099C25.3722 30.0751 21.8255 28.8818 18 28.8818C14.1765 28.8818 10.6315 30.0739 7.71638 32.1067C7.42943 32.3068 7.04517 32.2877 6.77187 32.0693C2.64424 28.7709 0 23.6942 0 17.9998Z" fill="#2B3894"/>
<path d="M34.593 17.0143C34.593 25.3253 27.8557 32.0626 19.5447 32.0626C11.2338 32.0626 4.49646 25.3253 4.49646 17.0143C4.49646 8.70341 11.2338 1.96606 19.5447 1.96606C27.8557 1.96606 34.593 8.70341 34.593 17.0143Z" fill="#3342AE"/>
<path d="M14.7118 24.8589C11.9935 24.8589 9.78989 27.0625 9.78989 29.7808V33.0142C9.78989 33.4753 9.28849 33.7614 8.89087 33.5276C8.14078 33.0866 7.42542 32.5928 6.75 32.0514V29.7808C6.75 27.0625 8.95359 24.8589 11.6719 24.8589H14.7118Z" fill="#EDD578"/>
<path d="M29.25 29.7809V32.0515C26.1684 34.5219 22.2568 35.9995 18 35.9995C14.6632 35.9995 11.5385 35.0915 8.85938 33.5092V29.781C8.85938 27.0627 11.063 24.8591 13.7812 24.8591H24.3281C27.0464 24.8591 29.25 27.0627 29.25 29.7809Z" fill="#F5E8B4"/>
<path d="M23.6338 23.6675L18.5277 29.6196V35.9924C18.3526 35.9975 18.1768 36 18.0004 36C17.8239 36 17.6482 35.9975 17.473 35.9924V29.6196L12.3669 23.6675C12.2104 23.4851 12.3401 23.2031 12.5804 23.2031H23.4203C23.6607 23.2031 23.7903 23.4851 23.6338 23.6675Z" fill="#FFF5F5"/>
<path d="M25.7344 12.9058V15.7183C25.7344 19.2586 23.3557 22.2433 20.1094 23.1615V25.562C20.1094 26.727 19.165 27.6714 18 27.6714C16.835 27.6714 15.8906 26.727 15.8906 25.562V23.1615C12.6443 22.2433 10.2656 19.2586 10.2656 15.7183V12.9058C10.2656 8.63421 13.7284 5.17139 18 5.17139C22.2716 5.17139 25.7344 8.63421 25.7344 12.9058Z" fill="#E09380"/>
<path d="M25.7344 12.9064V15.7189C25.7344 19.2902 23.3139 22.2962 20.0239 23.1858C19.3894 23.3573 18.7199 23.3573 18.0855 23.1858C14.7955 22.2962 12.375 19.2902 12.375 15.7189V12.9064C12.375 8.99261 15.2821 5.75781 19.0547 5.24341C22.8273 5.75774 25.7344 8.99261 25.7344 12.9064Z" fill="#FAA68E"/>
<path d="M33.7363 4.02948C33.7363 5.31416 32.7269 6.36301 31.458 6.42629L26.9537 9.42913V6.42932H26.9536C25.6282 6.42932 24.5538 5.35487 24.5538 4.02948C24.5538 2.70408 25.6282 1.62964 26.9536 1.62964H31.3364C32.6619 1.62957 33.7363 2.70401 33.7363 4.02948Z" fill="#B4E7FD"/>
<path d="M36.001 4.02923C36.001 5.35462 34.9265 6.42907 33.6012 6.42907H30.1534C28.828 6.42907 27.7535 5.35462 27.7535 4.02923C27.7535 2.70384 28.828 1.62939 30.1534 1.62939H33.6012C34.9265 1.62939 36.001 2.70384 36.001 4.02923Z" fill="#B4E7FD"/>
<path d="M25.9436 12.6562H24.6097C23.0565 12.6562 21.7972 11.397 21.7972 9.84375V6.18546C20.4468 9.17198 17.4415 11.25 13.9508 11.25H10.2192C10.9665 7.63734 14.1663 4.92188 18.0004 4.92188C19.3755 4.92188 20.6692 5.27126 21.7972 5.886C21.8121 5.89409 21.8268 5.90224 21.8417 5.91047C21.8439 5.91173 21.8462 5.91293 21.8484 5.9142C21.8626 5.922 21.8766 5.92987 21.8906 5.93782C21.8944 5.93993 21.8982 5.94204 21.9019 5.94415C24.2588 7.27516 25.8683 9.77463 25.9436 12.6562Z" fill="#915041"/>
<path d="M19.0205 16.192C18.748 16.4644 18.386 16.6145 18.001 16.6145C17.6159 16.6145 17.2539 16.4644 16.9814 16.192C16.7755 15.9859 16.7755 15.6521 16.9814 15.4462C17.1874 15.2403 17.5213 15.2403 17.7272 15.4462C17.8004 15.5194 17.8976 15.5598 18.0009 15.5598C18.1042 15.5598 18.2013 15.5194 18.2746 15.4462C18.4806 15.2403 18.8145 15.2403 19.0203 15.4462C19.2264 15.6522 19.2264 15.986 19.0205 16.192Z" fill="#D47F6C"/>
<path d="M22.3945 13.4331C22.3945 14.0156 21.9223 14.4878 21.3398 14.4878C20.7574 14.4878 20.2852 14.0156 20.2852 13.4331C20.2852 12.8506 20.7574 12.3784 21.3398 12.3784C21.9223 12.3784 22.3945 12.8506 22.3945 13.4331ZM14.6602 12.3784C14.0777 12.3784 13.6055 12.8506 13.6055 13.4331C13.6055 14.0156 14.0777 14.4878 14.6602 14.4878C15.2426 14.4878 15.7148 14.0156 15.7148 13.4331C15.7148 12.8506 15.2426 12.3784 14.6602 12.3784Z" fill="#4C2C21"/>
<path d="M15.8906 12.9058C15.8906 13.197 15.6545 13.4331 15.3633 13.4331C15.072 13.4331 14.8359 13.197 14.8359 12.9058C14.8359 12.6145 15.072 12.3784 15.3633 12.3784C15.6545 12.3784 15.8906 12.6145 15.8906 12.9058ZM22.043 12.3784C21.7517 12.3784 21.5156 12.6145 21.5156 12.9058C21.5156 13.197 21.7517 13.4331 22.043 13.4331C22.3342 13.4331 22.5703 13.197 22.5703 12.9058C22.5703 12.6145 22.3342 12.3784 22.043 12.3784Z" fill="#FFF5F5"/>
<path d="M20.1094 18.5308C20.1094 19.6958 19.165 20.6401 18 20.6401C16.8351 20.6401 15.8906 19.6958 15.8906 18.5308C15.8906 18.2395 16.1267 18.0034 16.418 18.0034H19.582C19.8733 18.0034 20.1094 18.2395 20.1094 18.5308Z" fill="#FFF5F5"/>
<path d="M18.5273 20.5737C18.3588 20.6171 18.1821 20.6401 18 20.6401C16.8351 20.6401 15.8906 19.6958 15.8906 18.5308C15.8906 18.2395 16.1267 18.0034 16.418 18.0034H17.4727C17.1814 18.0034 16.9453 18.2395 16.9453 18.5308C16.9453 19.5137 17.6176 20.3395 18.5273 20.5737Z" fill="#E1EBF0"/>
<path d="M26.7263 12.9457V18.2933C26.7263 18.5846 26.4902 18.8206 26.1989 18.8206C26.1611 18.8206 26.1243 18.8166 26.0888 18.809C25.4273 20.062 24.1108 20.918 22.5981 20.918H18.2806C17.9894 20.918 17.7533 20.6819 17.7533 20.3906C17.7533 20.0993 17.9894 19.8633 18.2806 19.8633H22.5981C24.1914 19.8633 25.4876 18.567 25.4876 16.9737V16.875C25.4876 16.7149 25.559 16.5715 25.6716 16.4748V12.9457C25.6716 8.71516 22.2299 5.27344 17.9994 5.27344C13.7689 5.27344 10.3271 8.71516 10.3271 12.9457V18.2933C10.3271 18.5846 10.091 18.8206 9.7998 18.8206C9.50857 18.8206 9.27246 18.5846 9.27246 18.2933V12.9457C9.27246 8.13368 13.1873 4.21875 17.9994 4.21875C22.8114 4.21875 26.7263 8.13368 26.7263 12.9457Z" fill="#B4D2D7"/>
<path d="M11.3203 14.4141V17.9297C11.3203 18.5122 10.8481 18.9844 10.2656 18.9844H9.5625C8.98003 18.9844 8.50781 18.5122 8.50781 17.9297V14.4141C8.50781 13.8316 8.98003 13.3594 9.5625 13.3594H10.2656C10.8481 13.3594 11.3203 13.8316 11.3203 14.4141ZM17.9297 19.3359H17.2266C16.6441 19.3359 16.1719 19.8082 16.1719 20.3906C16.1719 20.9731 16.6441 21.4453 17.2266 21.4453H17.9297C18.5122 21.4453 18.9844 20.9731 18.9844 20.3906C18.9844 19.8082 18.5122 19.3359 17.9297 19.3359ZM26.4375 13.3594H25.7344C25.1519 13.3594 24.6797 13.8316 24.6797 14.4141V17.9297C24.6797 18.5122 25.1519 18.9844 25.7344 18.9844H26.4375C27.02 18.9844 27.4922 18.5122 27.4922 17.9297V14.4141C27.4922 13.8316 27.02 13.3594 26.4375 13.3594Z" fill="#72D1FB"/>
<path d="M27.4922 14.4141V17.9297C27.4922 18.4523 27.1121 18.8861 26.6133 18.9698C26.1145 18.8861 25.7344 18.4523 25.7344 17.9297V14.4141C25.7344 13.8915 26.1145 13.4577 26.6133 13.374C27.1121 13.4577 27.4922 13.8915 27.4922 14.4141ZM10.4414 13.374C9.94261 13.4577 9.5625 13.8915 9.5625 14.4141V17.9297C9.5625 18.4523 9.94261 18.8861 10.4414 18.9698C10.9402 18.8861 11.3203 18.4523 11.3203 17.9297V14.4141C11.3203 13.8915 10.9402 13.4577 10.4414 13.374ZM18.1055 19.3506C17.6067 19.4343 17.2266 19.8681 17.2266 20.3907C17.2266 20.9132 17.6067 21.3471 18.1055 21.4307C18.6043 21.3471 18.9844 20.9132 18.9844 20.3907C18.9844 19.8681 18.6043 19.4343 18.1055 19.3506Z" fill="#93DCFC"/>
<path d="M28.6609 4.04297C28.6609 4.3342 28.4248 4.57031 28.1336 4.57031C27.8424 4.57031 27.6063 4.3342 27.6063 4.04297C27.6063 3.75173 27.8424 3.51562 28.1336 3.51562C28.4248 3.51562 28.6609 3.75173 28.6609 4.04297ZM30.2916 3.51562C30.0004 3.51562 29.7643 3.75173 29.7643 4.04297C29.7643 4.3342 30.0004 4.57031 30.2916 4.57031C30.5829 4.57031 30.819 4.3342 30.819 4.04297C30.819 3.75173 30.5829 3.51562 30.2916 3.51562ZM32.4193 3.51562C32.1281 3.51562 31.8919 3.75173 31.8919 4.04297C31.8919 4.3342 32.1281 4.57031 32.4193 4.57031C32.7105 4.57031 32.9466 4.3342 32.9466 4.04297C32.9466 3.75173 32.7106 3.51562 32.4193 3.51562Z" fill="#738C96"/>
<path d="M24.5039 29.2568C24.2127 29.2568 23.9766 29.4929 23.9766 29.7842V34.9834C24.3334 34.8578 24.6851 34.7213 25.0312 34.5743V29.7842C25.0312 29.4929 24.7951 29.2568 24.5039 29.2568ZM11.4961 29.2568C11.2049 29.2568 10.9688 29.4929 10.9688 29.7842V34.5742C11.3149 34.7212 11.6666 34.8577 12.0234 34.9833V29.7841C12.0234 29.4929 11.7873 29.2568 11.4961 29.2568Z" fill="#EDD578"/>
</g>
<defs>
<clipPath id="clip0_1_1390">
<rect width="36" height="36" fill="white"/>
</clipPath>
</defs>
</svg>
