<svg width="36" height="36" viewBox="0 0 36 36" fill="none" xmlns="http://www.w3.org/2000/svg">
<g clip-path="url(#clip0_1_1445)">
<path d="M0 18.0038C0 8.06464 8.05887 0.00739453 17.9999 0.00732422C27.9368 0.00732422 36.0279 8.12068 35.9999 18.0556C35.9805 24.9486 32.0851 30.9301 26.378 33.9361C26.0819 34.0921 25.7301 34.0965 25.4252 33.9583C23.1614 32.9321 20.6474 32.3606 17.9999 32.3606C15.3481 32.3606 12.8302 32.934 10.5635 33.9634C10.2659 34.0985 9.92236 34.0941 9.63316 33.942C3.90572 30.9304 0 24.9231 0 18.0038H0Z" fill="#2B3894"/>
<path d="M36 18.0631C36 28.0023 27.9411 36.0595 18.0001 36.0596C8.06316 36.0596 -0.0279076 27.9462 7.78718e-05 18.0113C0.0194838 11.1183 3.91493 5.13684 9.62199 2.13077C9.91815 1.97482 10.2699 1.97039 10.5748 2.10855C12.8386 3.13476 15.3526 3.70626 18.0001 3.70626C20.6519 3.70626 23.1698 3.13294 25.4365 2.10349C25.7341 1.96835 26.0776 1.97278 26.3668 2.12487C32.0943 5.13649 36 11.1438 36 18.0631V18.0631Z" fill="#2B3894"/>
<path opacity="0.1" d="M18.4875 7.76123H6.77814C6.3898 7.76123 6.07501 8.07602 6.07501 8.46421V26.2908C6.07501 26.679 6.3898 26.9937 6.77814 26.9937H18.4875C18.8758 26.9937 19.1906 26.679 19.1906 26.2908V8.46421C19.1906 8.07602 18.8758 7.76123 18.4875 7.76123Z" fill="black"/>
<path d="M11.0708 25.391H8.70312C8.31479 25.391 8 25.0762 8 24.688V6.86143C8 6.47324 8.31479 6.15845 8.70312 6.15845H11.0708C10.6824 6.15845 10.3676 6.47324 10.3676 6.86143V24.6879C10.3676 25.0762 10.6825 25.391 11.0708 25.391Z" fill="#EAC23F"/>
<path d="M10.7726 6.15845H20.4145C20.8028 6.15845 21.1176 6.47324 21.1176 6.86157V24.6878C21.1176 25.0761 20.8028 25.3909 20.4145 25.3909H10.7726C10.3843 25.3909 10.0695 25.0761 10.0695 24.6878V6.86157C10.0695 6.47331 10.3843 6.15845 10.7726 6.15845Z" fill="#E9CC5A"/>
<path d="M18.4369 20.6963C18.4369 20.9875 18.2008 21.2235 17.9096 21.2235H11.21C10.9188 21.2235 10.6826 20.9875 10.6826 20.6963C10.6826 20.4052 10.9188 20.1691 11.21 20.1691H17.9095C18.2008 20.169 18.4369 20.4051 18.4369 20.6963ZM9.54218 12.6572C9.25094 12.6572 9.01483 12.8933 9.01483 13.1845V13.8531C9.01483 14.1443 9.25094 14.3804 9.54218 14.3804C9.83341 14.3804 10.0695 14.1443 10.0695 13.8531V13.1845C10.0695 12.8933 9.83341 12.6572 9.54218 12.6572ZM11.7394 14.3804C12.0307 14.3804 12.2668 14.1443 12.2668 13.8531V13.1845C12.2668 12.8933 12.0307 12.6572 11.7394 12.6572C11.4482 12.6572 11.2121 12.8933 11.2121 13.1845V13.8531C11.2121 14.1443 11.4482 14.3804 11.7394 14.3804ZM17.9096 17.9721H11.21C10.9188 17.9721 10.6826 18.2083 10.6826 18.4994C10.6826 18.7907 10.9188 19.0266 11.21 19.0266H17.9095C18.2007 19.0266 18.4368 18.7907 18.4368 18.4994C18.4369 18.2083 18.2008 17.9721 17.9096 17.9721ZM17.9096 15.7754H11.21C10.9188 15.7754 10.6826 16.0114 10.6826 16.3026C10.6826 16.5938 10.9188 16.8299 11.21 16.8299H17.9095C18.2007 16.8299 18.4368 16.5938 18.4368 16.3026C18.4369 16.0114 18.2008 15.7754 17.9096 15.7754Z" fill="#C3A01A"/>
<path d="M9.63593 6.92042C9.63593 4.16283 11.9046 1.93505 14.6777 2.00094C17.2797 2.06274 19.4049 4.17788 19.4777 6.77916C19.5187 8.24272 18.9203 9.56726 17.9414 10.4941C17.7938 10.6338 17.5683 10.6509 17.4025 10.5332C16.5993 9.96348 15.6177 9.62858 14.5578 9.62858C13.5037 9.62858 12.5271 9.95982 11.7263 10.5239C11.5526 10.6463 11.3168 10.63 11.163 10.4834C10.2222 9.58716 9.63593 8.32224 9.63593 6.92042Z" fill="#3D4EC6"/>
<path d="M17.3017 5.49066V8.53956H11.7805V5.49066C11.7805 4.04342 12.9539 2.87012 14.4015 2.87012H14.6807C16.1282 2.87012 17.3017 4.04342 17.3017 5.49066Z" fill="#F5E8B4"/>
<path d="M14.449 9.20117C13.6169 9.20117 12.9423 9.87561 12.9423 10.7076V10.9503C12.9423 11.2585 12.617 11.4555 12.3418 11.3166C11.8959 11.0915 11.4889 10.8007 11.1336 10.4567C11.2531 9.74419 11.8728 9.20117 12.6194 9.20117H14.449Z" fill="#CC4646"/>
<path d="M17.9816 10.4568C17.0958 11.3142 15.8888 11.8418 14.5585 11.8418C13.7418 11.8418 12.9717 11.6429 12.2938 11.2911V10.7076C12.2938 9.87561 12.9683 9.20117 13.8005 9.20117H16.4958C17.2424 9.20124 17.8622 9.74427 17.9816 10.4568Z" fill="#E5554E"/>
<path d="M17.463 6.51048V6.7051C17.463 6.99184 17.2474 7.2437 16.9613 7.26254C16.8952 7.2669 16.8315 7.25923 16.772 7.24166C16.5083 7.93747 15.926 8.47656 15.203 8.68102V9.39357C15.203 9.7374 14.9435 10.0376 14.6003 10.0599C14.2242 10.0843 13.9115 9.78655 13.9115 9.41579V8.68102C13.1886 8.47663 12.6063 7.93747 12.3425 7.24166C12.283 7.25923 12.2193 7.2669 12.1532 7.26254C11.8671 7.24363 11.6516 6.99184 11.6516 6.7051V6.51055C11.6516 6.21341 11.8924 5.97259 12.1897 5.97259V5.5422C12.1897 5.10345 12.309 4.69262 12.5171 4.34035C12.5903 4.21639 12.7344 4.15346 12.8749 4.18468C13.3933 4.29985 13.9615 4.36341 14.5573 4.36341C15.1532 4.36341 15.7213 4.29985 16.2397 4.18468C16.3803 4.15346 16.5243 4.21639 16.5975 4.34035C16.8056 4.69262 16.925 5.10345 16.925 5.5422V5.97259C17.222 5.97252 17.463 6.21341 17.463 6.51048Z" fill="#E09380"/>
<path d="M16.9254 5.54196V6.40272C16.9254 7.46824 16.2213 8.36922 15.253 8.66615C14.2846 8.36922 13.5805 7.46817 13.5805 6.40272V5.54196C13.5805 5.07557 13.7154 4.64062 13.9484 4.27415C14.5519 3.32465 16.593 4.33131 16.6099 4.36049C16.8106 4.70819 16.9254 5.11164 16.9254 5.54196Z" fill="#FAA68E"/>
<path d="M14.0405 6.28108C14.0405 6.44385 13.9085 6.57582 13.7458 6.57582H13.451C13.2882 6.57582 13.1562 6.44385 13.1562 6.28108C13.1562 6.1183 13.2882 5.9864 13.451 5.9864H13.7458C13.9085 5.98633 14.0405 6.1183 14.0405 6.28108ZM15.6618 5.98633H15.367C15.2042 5.98633 15.0722 6.11823 15.0722 6.28101C15.0722 6.44378 15.2042 6.57575 15.367 6.57575H15.6618C15.8245 6.57575 15.9565 6.44378 15.9565 6.28101C15.9565 6.11823 15.8245 5.98633 15.6618 5.98633Z" fill="#915041"/>
<path d="M14.9993 7.34148V7.37101C14.9993 7.61513 14.8013 7.81306 14.5571 7.81306C14.3129 7.81306 14.1149 7.61513 14.1149 7.37101V7.34148C14.1149 7.27637 14.1677 7.22363 14.2328 7.22363H14.8813C14.9465 7.22363 14.9993 7.27644 14.9993 7.34148Z" fill="#FFF5F5"/>
<path d="M14.5588 3.1748C15.459 3.1748 16.2448 3.6518 16.6645 4.36055C16.0356 4.53415 15.3191 4.63245 14.5588 4.63245C13.7985 4.63245 13.082 4.53415 12.4531 4.36055C12.8729 3.6518 13.6587 3.1748 14.5588 3.1748Z" fill="#F5E8B4"/>
<path opacity="0.1" d="M27.4875 13.7612H15.7781C15.3898 13.7612 15.075 14.076 15.075 14.4642V32.2908C15.075 32.679 15.3898 32.9937 15.7781 32.9937H27.4875C27.8758 32.9937 28.1906 32.679 28.1906 32.2908V14.4642C28.1906 14.076 27.8758 13.7612 27.4875 13.7612Z" fill="black"/>
<path d="M19.9552 31.3912H17.5875C17.1992 31.3912 16.8844 31.0765 16.8844 30.6882V12.8617C16.8844 12.4735 17.1992 12.1587 17.5875 12.1587H19.9552C19.5668 12.1587 19.252 12.4735 19.252 12.8617V30.6881C19.252 31.0765 19.5668 31.3912 19.9552 31.3912Z" fill="#E5554E"/>
<path d="M18.9516 12.8618V30.688C18.9516 31.0763 19.2664 31.3911 19.6547 31.3911H29.2965C29.6849 31.3911 29.9997 31.0763 29.9997 30.688V12.8618C29.9997 12.4735 29.6849 12.1587 29.2965 12.1587H19.6547C19.2664 12.1587 18.9516 12.4736 18.9516 12.8618Z" fill="#F76C57"/>
<path d="M26.7902 21.7756H20.0906C19.7994 21.7756 19.5633 22.0117 19.5633 22.3029C19.5633 22.5941 19.7994 22.8301 20.0906 22.8301H26.7902C27.0814 22.8301 27.3175 22.5941 27.3175 22.3029C27.3175 22.0117 27.0814 21.7756 26.7902 21.7756ZM26.7902 23.9725H20.0906C19.7994 23.9725 19.5633 24.2086 19.5633 24.4997C19.5633 24.7909 19.7994 25.0269 20.0906 25.0269H26.7902C27.0814 25.0269 27.3175 24.7909 27.3175 24.4997C27.3175 24.2086 27.0814 23.9725 26.7902 23.9725ZM26.7902 26.1693H20.0906C19.7994 26.1693 19.5633 26.4054 19.5633 26.6966C19.5633 26.9878 19.7994 27.2238 20.0906 27.2238H26.7902C27.0814 27.2238 27.3175 26.9878 27.3175 26.6966C27.3175 26.4054 27.0814 26.1693 26.7902 26.1693ZM25.947 28.6208C25.6558 28.6208 25.4197 28.8568 25.4197 29.148V29.8166C25.4197 30.1077 25.6558 30.3438 25.947 30.3438C26.2383 30.3438 26.4744 30.1078 26.4744 29.8166V29.148C26.4744 28.8568 26.2383 28.6208 25.947 28.6208ZM28.1443 28.6208C27.8531 28.6208 27.617 28.8568 27.617 29.148V29.8166C27.617 30.1077 27.8531 30.3438 28.1443 30.3438C28.4355 30.3438 28.6716 30.1078 28.6716 29.8166V29.148C28.6716 28.8568 28.4355 28.6208 28.1443 28.6208Z" fill="#CC4646"/>
<path d="M18.5203 12.9241C18.5203 10.1665 20.789 7.93872 23.5621 8.0046C26.1641 8.0664 28.2893 10.1815 28.3621 12.7828C28.4031 14.2464 27.8048 15.5709 26.8259 16.4977C26.6782 16.6375 26.4527 16.6545 26.2869 16.5369C25.4837 15.9671 24.5021 15.6322 23.4422 15.6322C22.3882 15.6322 21.4115 15.9635 20.6107 16.5276C20.437 16.6499 20.2012 16.6336 20.0474 16.4871C19.1067 15.5908 18.5203 14.3259 18.5203 12.9241Z" fill="#3D4EC6"/>
<path d="M26.1884 9.76418V12.7489H20.6672V11.4945C20.6672 10.0473 21.8406 8.87402 23.2882 8.87402H25.298C25.7898 8.87402 26.1884 9.27255 26.1884 9.76418Z" fill="#4C2C21"/>
<path d="M23.3357 15.2051C22.5036 15.2051 21.829 15.8795 21.829 16.7115V16.9542C21.829 17.2624 21.5037 17.4594 21.2285 17.3205C20.7826 17.0954 20.3756 16.8046 20.0203 16.4606C20.1398 15.7481 20.7595 15.2051 21.5062 15.2051H23.3357Z" fill="#EAC23F"/>
<path d="M26.866 16.4607C25.9802 17.3181 24.7732 17.8457 23.4429 17.8457C22.6262 17.8457 21.8561 17.6468 21.1782 17.295V16.7115C21.1782 15.8795 21.8527 15.2051 22.6849 15.2051H25.3802C26.1268 15.2051 26.7466 15.7482 26.866 16.4607Z" fill="#E9CC5A"/>
<path d="M26.3498 12.5144V12.709C26.3498 12.9957 26.1342 13.2476 25.8481 13.2664C25.782 13.2708 25.7183 13.2631 25.6588 13.2456C25.3951 13.9414 24.8128 14.4805 24.0898 14.6849V15.3975C24.0898 15.7413 23.8303 16.0415 23.4871 16.0638C23.111 16.0882 22.7983 15.7905 22.7983 15.4197V14.6849C22.0754 14.4805 21.493 13.9414 21.2293 13.2456C21.1698 13.2631 21.106 13.2708 21.0399 13.2664C20.7538 13.2475 20.5383 12.9957 20.5383 12.709V12.5145C20.5383 12.2173 20.7792 11.9765 21.0764 11.9765V11.5461C21.0764 11.1074 21.1958 10.6965 21.4038 10.3443C21.477 10.2203 21.6211 10.1574 21.7616 10.1886C22.2801 10.3038 22.8482 10.3673 23.444 10.3673C24.0398 10.3673 24.608 10.3038 25.1264 10.1886C25.267 10.1574 25.4111 10.2203 25.4843 10.3443C25.6923 10.6965 25.8117 11.1074 25.8117 11.5461V11.9765C26.1088 11.9764 26.3498 12.2173 26.3498 12.5144Z" fill="#A65D4E"/>
<path d="M25.8098 11.5463V12.4071C25.8098 13.4726 25.1056 14.3736 24.1373 14.6705C23.169 14.3736 22.4648 13.4726 22.4648 12.4071V11.5463C22.4648 11.08 22.5998 10.645 22.8327 10.2785C23.4362 9.32905 25.4774 10.3357 25.4943 10.3649C25.6949 10.7126 25.8098 11.116 25.8098 11.5463Z" fill="#B46E5A"/>
<path d="M23.8853 13.5225C23.8853 13.6852 23.7533 13.8172 23.5905 13.8172H23.2957C23.133 13.8172 23.001 13.6852 23.001 13.5225C23.001 13.3597 23.133 13.2278 23.2957 13.2278H23.5905C23.7533 13.2278 23.8853 13.3597 23.8853 13.5225ZM22.9273 12.2847C22.9273 12.4474 22.7953 12.5794 22.6325 12.5794H22.3377C22.1749 12.5794 22.043 12.4474 22.043 12.2847C22.043 12.1219 22.1749 11.99 22.3377 11.99H22.6325C22.7953 11.99 22.9273 12.1219 22.9273 12.2847ZM24.5486 11.99H24.2538C24.091 11.99 23.959 12.1219 23.959 12.2847C23.959 12.4474 24.091 12.5794 24.2538 12.5794H24.5486C24.7113 12.5794 24.8433 12.4474 24.8433 12.2847C24.8433 12.1219 24.7113 11.99 24.5486 11.99Z" fill="#915041"/>
<path d="M23.4414 9.17871C24.3569 9.17871 25.156 9.65571 25.5829 10.3645C24.9434 10.5381 24.2147 10.6364 23.4414 10.6364C22.6682 10.6364 21.9395 10.5381 21.3 10.3645C21.7268 9.65571 22.526 9.17871 23.4414 9.17871Z" fill="#4C2C21"/>
</g>
<defs>
<clipPath id="clip0_1_1445">
<rect width="36" height="36" fill="white"/>
</clipPath>
</defs>
</svg>
