<svg width="26" height="6" viewBox="0 0 26 6" fill="none" xmlns="http://www.w3.org/2000/svg">
<mask id="path-1-outside-1_1_970" maskUnits="userSpaceOnUse" x="0.32666" y="-0.245117" width="24" height="6" fill="black">
<rect fill="white" x="0.32666" y="-0.245117" width="24" height="6"/>
<path d="M2.85736 4.51693C3.21154 4.51693 3.514 4.38258 3.76472 4.11385C4.01547 3.84513 4.14084 3.51582 4.14084 3.12593C4.14084 2.73602 4.01547 2.40671 3.76472 2.13799C3.514 1.86927 3.21154 1.73491 2.85736 1.73491C2.48915 1.73491 2.2051 1.86312 2.00522 2.11955V0.754883H1.32666V4.44316H2.00522V4.1323C2.2051 4.38872 2.48915 4.51693 2.85736 4.51693ZM2.73112 3.86885C2.52071 3.86885 2.34713 3.80036 2.21036 3.66335C2.0736 3.52286 2.00522 3.34371 2.00522 3.12593C2.00522 2.90814 2.0736 2.72987 2.21036 2.59112C2.34713 2.45237 2.52071 2.383 2.73112 2.383C2.94152 2.383 3.11598 2.45237 3.2545 2.59112C3.39302 2.72987 3.46227 2.90814 3.46227 3.12593C3.46227 3.34371 3.39302 3.52196 3.2545 3.66071C3.11598 3.79946 2.94152 3.86885 2.73112 3.86885ZM5.29807 4.44316V3.18388C5.29807 2.93097 5.3796 2.75007 5.54265 2.64118C5.70572 2.53228 5.8907 2.49013 6.0976 2.51472V1.75599C5.91877 1.75599 5.75657 1.79814 5.61103 1.88244C5.46551 1.96675 5.36118 2.0932 5.29807 2.26181V1.80868H4.61951V4.44316H5.29807ZM7.79663 4.51693C8.30161 4.51693 8.68384 4.329 8.94334 3.95315L8.39627 3.63702C8.26302 3.81264 8.06665 3.90045 7.80715 3.90045C7.40388 3.90045 7.15664 3.73537 7.06548 3.40517H9.04855C9.06608 3.30682 9.07483 3.21374 9.07483 3.12593C9.07483 2.7325 8.94948 2.40232 8.69874 2.13535C8.44801 1.86839 8.12976 1.73491 7.74402 1.73491C7.33724 1.73491 7.00411 1.86751 6.74461 2.13272C6.48509 2.39792 6.35534 2.72899 6.35534 3.12593C6.35534 3.52636 6.48685 3.85831 6.74986 4.12176C7.01286 4.38521 7.36178 4.51693 7.79663 4.51693ZM8.39627 2.87828H7.05494C7.09353 2.70967 7.17243 2.57883 7.29166 2.48574C7.41089 2.39265 7.56168 2.34611 7.74402 2.34611C7.89833 2.34611 8.03597 2.39002 8.15694 2.47784C8.27793 2.56565 8.3577 2.69913 8.39627 2.87828ZM10.6897 4.51693C11.0579 4.51693 11.3437 4.38872 11.5471 4.1323V4.44316H12.2257V1.80868H11.5471V2.11955C11.3437 1.86312 11.0579 1.73491 10.6897 1.73491C10.339 1.73491 10.0383 1.86927 9.78759 2.13799C9.53686 2.40671 9.41149 2.73602 9.41149 3.12593C9.41149 3.51582 9.53686 3.84513 9.78759 4.11385C10.0383 4.38258 10.339 4.51693 10.6897 4.51693ZM10.8159 3.86885C10.6055 3.86885 10.432 3.80036 10.2952 3.66335C10.1584 3.52286 10.0901 3.34371 10.0901 3.12593C10.0901 2.90814 10.1584 2.72987 10.2952 2.59112C10.432 2.45237 10.6055 2.383 10.8159 2.383C11.0263 2.383 11.2008 2.45237 11.3393 2.59112C11.4778 2.72987 11.5471 2.90814 11.5471 3.12593C11.5471 3.34371 11.4778 3.52196 11.3393 3.66071C11.2008 3.79946 11.0263 3.86885 10.8159 3.86885ZM13.5197 4.44316V3.2471L14.477 4.44316H15.266L14.1772 3.11011L15.2345 1.80868H14.4244L13.5197 2.96786V0.754883H12.8411V4.44316H13.5197ZM16.8756 4.51166C17.2614 4.51166 17.5892 4.37818 17.8593 4.11122C18.1293 3.84426 18.2643 3.51582 18.2643 3.12593C18.2643 2.73602 18.1293 2.40758 17.8593 2.14062C17.5892 1.87366 17.2614 1.74018 16.8756 1.74018C16.4899 1.74018 16.1629 1.87366 15.8946 2.14062C15.6263 2.40758 15.4922 2.73602 15.4922 3.12593C15.4922 3.51582 15.6263 3.84426 15.8946 4.11122C16.1629 4.37818 16.4899 4.51166 16.8756 4.51166ZM16.8756 4.06381C16.6161 4.06381 16.3969 3.97423 16.2181 3.79509C16.0393 3.61594 15.9498 3.39288 15.9498 3.12593C15.9498 2.85896 16.0393 2.6359 16.2181 2.45676C16.3969 2.27761 16.6161 2.18804 16.8756 2.18804C17.1386 2.18804 17.3596 2.27761 17.5384 2.45676C17.7172 2.6359 17.8067 2.85896 17.8067 3.12593C17.8067 3.39288 17.7172 3.61594 17.5384 3.79509C17.3596 3.97423 17.1386 4.06381 16.8756 4.06381ZM19.7687 4.51166C20.1509 4.51166 20.435 4.36237 20.6208 4.06381V4.44316H21.0785V1.80868H20.6208V3.20496C20.6208 3.50001 20.5507 3.71869 20.4104 3.86094C20.2702 4.0032 20.086 4.07433 19.8581 4.07433C19.6547 4.07433 19.4952 4.0155 19.3794 3.89784C19.2637 3.78015 19.2058 3.61417 19.2058 3.3999V1.80868H18.7482V3.42625C18.7482 3.75996 18.8412 4.02428 19.027 4.21924C19.2129 4.41418 19.4601 4.51166 19.7687 4.51166ZM22.3251 4.34568C22.511 4.46335 22.8038 4.49585 23.2036 4.44316V4.03219C23.0493 4.0392 22.9195 4.04183 22.8143 4.04009C22.7091 4.03833 22.6311 4.01023 22.5802 3.95579C22.5294 3.90134 22.504 3.80913 22.504 3.67916V2.25127H23.2036V1.80868H22.504V1.07102L22.0463 1.20802V1.80868H21.5256V2.25127H22.0463V3.67916C22.0463 4.00583 22.1393 4.22802 22.3251 4.34568Z"/>
</mask>
<path d="M2.85736 4.51693C3.21154 4.51693 3.514 4.38258 3.76472 4.11385C4.01547 3.84513 4.14084 3.51582 4.14084 3.12593C4.14084 2.73602 4.01547 2.40671 3.76472 2.13799C3.514 1.86927 3.21154 1.73491 2.85736 1.73491C2.48915 1.73491 2.2051 1.86312 2.00522 2.11955V0.754883H1.32666V4.44316H2.00522V4.1323C2.2051 4.38872 2.48915 4.51693 2.85736 4.51693ZM2.73112 3.86885C2.52071 3.86885 2.34713 3.80036 2.21036 3.66335C2.0736 3.52286 2.00522 3.34371 2.00522 3.12593C2.00522 2.90814 2.0736 2.72987 2.21036 2.59112C2.34713 2.45237 2.52071 2.383 2.73112 2.383C2.94152 2.383 3.11598 2.45237 3.2545 2.59112C3.39302 2.72987 3.46227 2.90814 3.46227 3.12593C3.46227 3.34371 3.39302 3.52196 3.2545 3.66071C3.11598 3.79946 2.94152 3.86885 2.73112 3.86885ZM5.29807 4.44316V3.18388C5.29807 2.93097 5.3796 2.75007 5.54265 2.64118C5.70572 2.53228 5.8907 2.49013 6.0976 2.51472V1.75599C5.91877 1.75599 5.75657 1.79814 5.61103 1.88244C5.46551 1.96675 5.36118 2.0932 5.29807 2.26181V1.80868H4.61951V4.44316H5.29807ZM7.79663 4.51693C8.30161 4.51693 8.68384 4.329 8.94334 3.95315L8.39627 3.63702C8.26302 3.81264 8.06665 3.90045 7.80715 3.90045C7.40388 3.90045 7.15664 3.73537 7.06548 3.40517H9.04855C9.06608 3.30682 9.07483 3.21374 9.07483 3.12593C9.07483 2.7325 8.94948 2.40232 8.69874 2.13535C8.44801 1.86839 8.12976 1.73491 7.74402 1.73491C7.33724 1.73491 7.00411 1.86751 6.74461 2.13272C6.48509 2.39792 6.35534 2.72899 6.35534 3.12593C6.35534 3.52636 6.48685 3.85831 6.74986 4.12176C7.01286 4.38521 7.36178 4.51693 7.79663 4.51693ZM8.39627 2.87828H7.05494C7.09353 2.70967 7.17243 2.57883 7.29166 2.48574C7.41089 2.39265 7.56168 2.34611 7.74402 2.34611C7.89833 2.34611 8.03597 2.39002 8.15694 2.47784C8.27793 2.56565 8.3577 2.69913 8.39627 2.87828ZM10.6897 4.51693C11.0579 4.51693 11.3437 4.38872 11.5471 4.1323V4.44316H12.2257V1.80868H11.5471V2.11955C11.3437 1.86312 11.0579 1.73491 10.6897 1.73491C10.339 1.73491 10.0383 1.86927 9.78759 2.13799C9.53686 2.40671 9.41149 2.73602 9.41149 3.12593C9.41149 3.51582 9.53686 3.84513 9.78759 4.11385C10.0383 4.38258 10.339 4.51693 10.6897 4.51693ZM10.8159 3.86885C10.6055 3.86885 10.432 3.80036 10.2952 3.66335C10.1584 3.52286 10.0901 3.34371 10.0901 3.12593C10.0901 2.90814 10.1584 2.72987 10.2952 2.59112C10.432 2.45237 10.6055 2.383 10.8159 2.383C11.0263 2.383 11.2008 2.45237 11.3393 2.59112C11.4778 2.72987 11.5471 2.90814 11.5471 3.12593C11.5471 3.34371 11.4778 3.52196 11.3393 3.66071C11.2008 3.79946 11.0263 3.86885 10.8159 3.86885ZM13.5197 4.44316V3.2471L14.477 4.44316H15.266L14.1772 3.11011L15.2345 1.80868H14.4244L13.5197 2.96786V0.754883H12.8411V4.44316H13.5197ZM16.8756 4.51166C17.2614 4.51166 17.5892 4.37818 17.8593 4.11122C18.1293 3.84426 18.2643 3.51582 18.2643 3.12593C18.2643 2.73602 18.1293 2.40758 17.8593 2.14062C17.5892 1.87366 17.2614 1.74018 16.8756 1.74018C16.4899 1.74018 16.1629 1.87366 15.8946 2.14062C15.6263 2.40758 15.4922 2.73602 15.4922 3.12593C15.4922 3.51582 15.6263 3.84426 15.8946 4.11122C16.1629 4.37818 16.4899 4.51166 16.8756 4.51166ZM16.8756 4.06381C16.6161 4.06381 16.3969 3.97423 16.2181 3.79509C16.0393 3.61594 15.9498 3.39288 15.9498 3.12593C15.9498 2.85896 16.0393 2.6359 16.2181 2.45676C16.3969 2.27761 16.6161 2.18804 16.8756 2.18804C17.1386 2.18804 17.3596 2.27761 17.5384 2.45676C17.7172 2.6359 17.8067 2.85896 17.8067 3.12593C17.8067 3.39288 17.7172 3.61594 17.5384 3.79509C17.3596 3.97423 17.1386 4.06381 16.8756 4.06381ZM19.7687 4.51166C20.1509 4.51166 20.435 4.36237 20.6208 4.06381V4.44316H21.0785V1.80868H20.6208V3.20496C20.6208 3.50001 20.5507 3.71869 20.4104 3.86094C20.2702 4.0032 20.086 4.07433 19.8581 4.07433C19.6547 4.07433 19.4952 4.0155 19.3794 3.89784C19.2637 3.78015 19.2058 3.61417 19.2058 3.3999V1.80868H18.7482V3.42625C18.7482 3.75996 18.8412 4.02428 19.027 4.21924C19.2129 4.41418 19.4601 4.51166 19.7687 4.51166ZM22.3251 4.34568C22.511 4.46335 22.8038 4.49585 23.2036 4.44316V4.03219C23.0493 4.0392 22.9195 4.04183 22.8143 4.04009C22.7091 4.03833 22.6311 4.01023 22.5802 3.95579C22.5294 3.90134 22.504 3.80913 22.504 3.67916V2.25127H23.2036V1.80868H22.504V1.07102L22.0463 1.20802V1.80868H21.5256V2.25127H22.0463V3.67916C22.0463 4.00583 22.1393 4.22802 22.3251 4.34568Z" fill="#98A6BC"/>
<path d="M2.85736 4.51693C3.21154 4.51693 3.514 4.38258 3.76472 4.11385C4.01547 3.84513 4.14084 3.51582 4.14084 3.12593C4.14084 2.73602 4.01547 2.40671 3.76472 2.13799C3.514 1.86927 3.21154 1.73491 2.85736 1.73491C2.48915 1.73491 2.2051 1.86312 2.00522 2.11955V0.754883H1.32666V4.44316H2.00522V4.1323C2.2051 4.38872 2.48915 4.51693 2.85736 4.51693ZM2.73112 3.86885C2.52071 3.86885 2.34713 3.80036 2.21036 3.66335C2.0736 3.52286 2.00522 3.34371 2.00522 3.12593C2.00522 2.90814 2.0736 2.72987 2.21036 2.59112C2.34713 2.45237 2.52071 2.383 2.73112 2.383C2.94152 2.383 3.11598 2.45237 3.2545 2.59112C3.39302 2.72987 3.46227 2.90814 3.46227 3.12593C3.46227 3.34371 3.39302 3.52196 3.2545 3.66071C3.11598 3.79946 2.94152 3.86885 2.73112 3.86885ZM5.29807 4.44316V3.18388C5.29807 2.93097 5.3796 2.75007 5.54265 2.64118C5.70572 2.53228 5.8907 2.49013 6.0976 2.51472V1.75599C5.91877 1.75599 5.75657 1.79814 5.61103 1.88244C5.46551 1.96675 5.36118 2.0932 5.29807 2.26181V1.80868H4.61951V4.44316H5.29807ZM7.79663 4.51693C8.30161 4.51693 8.68384 4.329 8.94334 3.95315L8.39627 3.63702C8.26302 3.81264 8.06665 3.90045 7.80715 3.90045C7.40388 3.90045 7.15664 3.73537 7.06548 3.40517H9.04855C9.06608 3.30682 9.07483 3.21374 9.07483 3.12593C9.07483 2.7325 8.94948 2.40232 8.69874 2.13535C8.44801 1.86839 8.12976 1.73491 7.74402 1.73491C7.33724 1.73491 7.00411 1.86751 6.74461 2.13272C6.48509 2.39792 6.35534 2.72899 6.35534 3.12593C6.35534 3.52636 6.48685 3.85831 6.74986 4.12176C7.01286 4.38521 7.36178 4.51693 7.79663 4.51693ZM8.39627 2.87828H7.05494C7.09353 2.70967 7.17243 2.57883 7.29166 2.48574C7.41089 2.39265 7.56168 2.34611 7.74402 2.34611C7.89833 2.34611 8.03597 2.39002 8.15694 2.47784C8.27793 2.56565 8.3577 2.69913 8.39627 2.87828ZM10.6897 4.51693C11.0579 4.51693 11.3437 4.38872 11.5471 4.1323V4.44316H12.2257V1.80868H11.5471V2.11955C11.3437 1.86312 11.0579 1.73491 10.6897 1.73491C10.339 1.73491 10.0383 1.86927 9.78759 2.13799C9.53686 2.40671 9.41149 2.73602 9.41149 3.12593C9.41149 3.51582 9.53686 3.84513 9.78759 4.11385C10.0383 4.38258 10.339 4.51693 10.6897 4.51693ZM10.8159 3.86885C10.6055 3.86885 10.432 3.80036 10.2952 3.66335C10.1584 3.52286 10.0901 3.34371 10.0901 3.12593C10.0901 2.90814 10.1584 2.72987 10.2952 2.59112C10.432 2.45237 10.6055 2.383 10.8159 2.383C11.0263 2.383 11.2008 2.45237 11.3393 2.59112C11.4778 2.72987 11.5471 2.90814 11.5471 3.12593C11.5471 3.34371 11.4778 3.52196 11.3393 3.66071C11.2008 3.79946 11.0263 3.86885 10.8159 3.86885ZM13.5197 4.44316V3.2471L14.477 4.44316H15.266L14.1772 3.11011L15.2345 1.80868H14.4244L13.5197 2.96786V0.754883H12.8411V4.44316H13.5197ZM16.8756 4.51166C17.2614 4.51166 17.5892 4.37818 17.8593 4.11122C18.1293 3.84426 18.2643 3.51582 18.2643 3.12593C18.2643 2.73602 18.1293 2.40758 17.8593 2.14062C17.5892 1.87366 17.2614 1.74018 16.8756 1.74018C16.4899 1.74018 16.1629 1.87366 15.8946 2.14062C15.6263 2.40758 15.4922 2.73602 15.4922 3.12593C15.4922 3.51582 15.6263 3.84426 15.8946 4.11122C16.1629 4.37818 16.4899 4.51166 16.8756 4.51166ZM16.8756 4.06381C16.6161 4.06381 16.3969 3.97423 16.2181 3.79509C16.0393 3.61594 15.9498 3.39288 15.9498 3.12593C15.9498 2.85896 16.0393 2.6359 16.2181 2.45676C16.3969 2.27761 16.6161 2.18804 16.8756 2.18804C17.1386 2.18804 17.3596 2.27761 17.5384 2.45676C17.7172 2.6359 17.8067 2.85896 17.8067 3.12593C17.8067 3.39288 17.7172 3.61594 17.5384 3.79509C17.3596 3.97423 17.1386 4.06381 16.8756 4.06381ZM19.7687 4.51166C20.1509 4.51166 20.435 4.36237 20.6208 4.06381V4.44316H21.0785V1.80868H20.6208V3.20496C20.6208 3.50001 20.5507 3.71869 20.4104 3.86094C20.2702 4.0032 20.086 4.07433 19.8581 4.07433C19.6547 4.07433 19.4952 4.0155 19.3794 3.89784C19.2637 3.78015 19.2058 3.61417 19.2058 3.3999V1.80868H18.7482V3.42625C18.7482 3.75996 18.8412 4.02428 19.027 4.21924C19.2129 4.41418 19.4601 4.51166 19.7687 4.51166ZM22.3251 4.34568C22.511 4.46335 22.8038 4.49585 23.2036 4.44316V4.03219C23.0493 4.0392 22.9195 4.04183 22.8143 4.04009C22.7091 4.03833 22.6311 4.01023 22.5802 3.95579C22.5294 3.90134 22.504 3.80913 22.504 3.67916V2.25127H23.2036V1.80868H22.504V1.07102L22.0463 1.20802V1.80868H21.5256V2.25127H22.0463V3.67916C22.0463 4.00583 22.1393 4.22802 22.3251 4.34568Z" stroke="#DAE6F4" stroke-width="1.2" stroke-linejoin="round" mask="url(#path-1-outside-1_1_970)"/>
<path d="M24.5446 4.5854L24.545 4.58506C24.6711 4.45484 24.7362 4.29086 24.7362 4.11009C24.7362 3.92933 24.6711 3.76535 24.545 3.63513L24.5446 3.63475C24.4136 3.50002 24.2452 3.43389 24.0611 3.43389C23.8777 3.43389 23.7127 3.50211 23.5832 3.63211L23.5832 3.63214C23.4539 3.76194 23.3861 3.92693 23.3861 4.11009C23.3861 4.29326 23.4539 4.45824 23.5832 4.58805C23.7128 4.71812 23.8778 4.7863 24.0611 4.7863C24.2452 4.7863 24.4136 4.72022 24.5446 4.5854Z" fill="#98A6BC" stroke="#DAE6F4" stroke-width="0.6" stroke-linejoin="round"/>
</svg>
