<svg width="67" height="12" viewBox="0 0 67 12" fill="none" xmlns="http://www.w3.org/2000/svg">
<path d="M4.53427 11.0232C5.55954 11.0232 6.43507 10.6343 7.16085 9.85639C7.88669 9.07851 8.24961 8.12525 8.24961 6.9966C8.24961 5.86791 7.88669 4.91465 7.16085 4.13678C6.43507 3.35891 5.55954 2.96998 4.53427 2.96998C3.4684 2.96998 2.64616 3.34112 2.06754 4.0834V0.133057L0.103302 0.133057L0.103302 10.8097H2.06754V9.90979C2.64616 10.6521 3.4684 11.0232 4.53427 11.0232ZM4.16883 9.14717C3.55977 9.14717 3.05728 8.9489 2.66139 8.5523C2.2655 8.14561 2.06754 7.62702 2.06754 6.9966C2.06754 6.36618 2.2655 5.85012 2.66139 5.44848C3.05728 5.04684 3.55977 4.84601 4.16883 4.84601C4.7779 4.84601 5.28292 5.04684 5.68389 5.44848C6.08486 5.85012 6.28534 6.36618 6.28534 6.9966C6.28534 7.62702 6.08486 8.14303 5.68389 8.54467C5.28292 8.94631 4.7779 9.14717 4.16883 9.14717ZM11.5995 10.8097V7.16436C11.5995 6.43224 11.8355 5.90859 12.3075 5.59338C12.7795 5.27816 13.315 5.15615 13.9139 5.22732V3.03099C13.3962 3.03099 12.9267 3.15301 12.5054 3.39705C12.0842 3.64109 11.7822 4.00713 11.5995 4.49521V3.18352H9.63523V10.8097H11.5995ZM18.8322 11.0232C20.2939 11.0232 21.4004 10.4792 22.1516 9.3912L20.568 8.47608C20.1822 8.98445 19.6138 9.23864 18.8626 9.23864C17.6952 9.23864 16.9796 8.76078 16.7157 7.80493H22.4561C22.5069 7.52023 22.5322 7.25079 22.5322 6.9966C22.5322 5.85774 22.1694 4.90194 21.4435 4.12915C20.7177 3.35637 19.7965 2.96998 18.6799 2.96998C17.5023 2.96998 16.538 3.35383 15.7868 4.12153C15.0356 4.88923 14.66 5.84758 14.66 6.9966C14.66 8.15576 15.0407 9.11666 15.802 9.87928C16.5634 10.6419 17.5734 11.0232 18.8322 11.0232ZM20.568 6.27973H16.6852C16.7969 5.79166 17.0253 5.41289 17.3704 5.14343C17.7155 4.87397 18.152 4.73925 18.6799 4.73925C19.1266 4.73925 19.525 4.86635 19.8752 5.12055C20.2254 5.37476 20.4563 5.76115 20.568 6.27973ZM27.2068 11.0232C28.2727 11.0232 29.1 10.6521 29.6888 9.90979V10.8097H31.653V3.18352H29.6888V4.0834C29.1 3.34112 28.2727 2.96998 27.2068 2.96998C26.1917 2.96998 25.3213 3.35891 24.5955 4.13678C23.8697 4.91465 23.5068 5.86791 23.5068 6.9966C23.5068 8.12525 23.8697 9.07851 24.5955 9.85639C25.3213 10.6343 26.1917 11.0232 27.2068 11.0232ZM27.5723 9.14717C26.9632 9.14717 26.4607 8.9489 26.0648 8.5523C25.669 8.14561 25.471 7.62702 25.471 6.9966C25.471 6.36618 25.669 5.85012 26.0648 5.44848C26.4607 5.04684 26.9632 4.84601 27.5723 4.84601C28.1813 4.84601 28.6864 5.04684 29.0874 5.44848C29.4883 5.85012 29.6888 6.36618 29.6888 6.9966C29.6888 7.62702 29.4883 8.14303 29.0874 8.54467C28.6864 8.94631 28.1813 9.14717 27.5723 9.14717ZM35.3988 10.8097V7.34737L38.1701 10.8097H40.4541L37.3021 6.95083L40.3627 3.18352L38.0178 3.18352L35.3988 6.53904V0.133057L33.4346 0.133057V10.8097H35.3988ZM45.1135 11.0079C46.2301 11.0079 47.1792 10.6215 47.9608 9.84877C48.7425 9.07599 49.1333 8.12525 49.1333 6.9966C49.1333 5.86791 48.7425 4.91719 47.9608 4.14441C47.1792 3.37162 46.2301 2.98524 45.1135 2.98524C43.9968 2.98524 43.0502 3.37162 42.2736 4.14441C41.4971 4.91719 41.1088 5.86791 41.1088 6.9966C41.1088 8.12525 41.4971 9.07599 42.2736 9.84877C43.0502 10.6215 43.9968 11.0079 45.1135 11.0079ZM45.1135 9.71152C44.3623 9.71152 43.7278 9.45223 43.2101 8.93364C42.6924 8.41506 42.4336 7.76937 42.4336 6.9966C42.4336 6.2238 42.6924 5.57812 43.2101 5.05955C43.7278 4.54096 44.3623 4.28168 45.1135 4.28168C45.8748 4.28168 46.5143 4.54096 47.032 5.05955C47.5497 5.57812 47.8086 6.2238 47.8086 6.9966C47.8086 7.76937 47.5497 8.41506 47.032 8.93364C46.5143 9.45223 45.8748 9.71152 45.1135 9.71152ZM53.4881 11.0079C54.5946 11.0079 55.4169 10.5758 55.9549 9.71152V10.8097H57.2796V3.18352L55.9549 3.18352V7.22538C55.9549 8.07948 55.7518 8.71249 55.3458 9.12428C54.9397 9.53608 54.4068 9.74197 53.747 9.74197C53.1582 9.74197 52.6963 9.57169 52.3613 9.23108C52.0263 8.89039 51.8588 8.40995 51.8588 7.78967V3.18352H50.5341V7.86595C50.5341 8.83195 50.8032 9.5971 51.3412 10.1615C51.8792 10.7257 52.5948 11.0079 53.4881 11.0079ZM60.8883 10.5275C61.4263 10.8681 62.274 10.9622 63.4312 10.8097V9.61999C62.9845 9.64028 62.609 9.64791 62.3044 9.64287C61.9999 9.63776 61.774 9.55644 61.6268 9.39883C61.4796 9.24123 61.406 8.9743 61.406 8.59807V4.46471H63.4312V3.18352H61.406V1.04819L60.0813 1.44476V3.18352H58.5738V4.46471H60.0813V8.59807C60.0813 9.5437 60.3503 10.1869 60.8883 10.5275Z" fill="#AFBDD2"/>
<path d="M65.9139 10.9334C66.2262 10.9334 66.4848 10.8273 66.691 10.6151C66.8966 10.4029 67 10.146 67 9.84439C67 9.54282 66.8966 9.28592 66.691 9.07369C66.4848 8.86152 66.2262 8.75537 65.9139 8.75537C65.6133 8.75537 65.3574 8.86152 65.146 9.07369C64.9346 9.28592 64.8286 9.54282 64.8286 9.84439C64.8286 10.146 64.9346 10.4029 65.146 10.6151C65.3574 10.8273 65.6133 10.9334 65.9139 10.9334Z" fill="#AFBDD2"/>
</svg>
