<svg width="104" height="40" viewBox="0 0 104 40" fill="none" xmlns="http://www.w3.org/2000/svg">
<path d="M11.0502 20.5591C12.5188 20.5591 13.773 20.002 14.8126 18.8878C15.8523 17.7735 16.3722 16.408 16.3722 14.7913C16.3722 13.1745 15.8523 11.809 14.8126 10.6948C13.773 9.58055 12.5188 9.02343 11.0502 9.02343C9.52342 9.02343 8.34561 9.55507 7.51678 10.6183V4.95972H4.70312V20.2533H7.51678V18.9643C8.34561 20.0275 9.52342 20.5591 11.0502 20.5591ZM10.5267 17.8719C9.65429 17.8719 8.93451 17.5878 8.36742 17.0197C7.80033 16.4372 7.51678 15.6943 7.51678 14.7913C7.51678 13.8883 7.80033 13.149 8.36742 12.5737C8.93451 11.9984 9.65429 11.7107 10.5267 11.7107C11.3992 11.7107 12.1226 11.9984 12.697 12.5737C13.2713 13.149 13.5585 13.8883 13.5585 14.7913C13.5585 15.6943 13.2713 16.4335 12.697 17.0088C12.1226 17.5841 11.3992 17.8719 10.5267 17.8719ZM21.1707 20.2533V15.0316C21.1707 13.9829 21.5088 13.2328 22.1848 12.7813C22.861 12.3297 23.628 12.155 24.486 12.2569V9.11082C23.7444 9.11082 23.0719 9.28561 22.4684 9.63518C21.865 9.98474 21.4324 10.5091 21.1707 11.2082V9.32931H18.357V20.2533H21.1707ZM31.531 20.5591C33.6249 20.5591 35.2099 19.7799 36.2859 18.2214L34.0174 16.9106C33.4649 17.6388 32.6507 18.0029 31.5746 18.0029C29.9025 18.0029 28.8773 17.3184 28.4993 15.9492H36.7221C36.7948 15.5414 36.8311 15.1554 36.8311 14.7913C36.8311 13.16 36.3114 11.7908 35.2716 10.6839C34.232 9.57691 32.9124 9.02343 31.3129 9.02343C29.6261 9.02343 28.2448 9.57327 27.1688 10.673C26.0927 11.7726 25.5547 13.1454 25.5547 14.7913C25.5547 16.4517 26.1 17.8281 27.1906 18.9206C28.2811 20.013 29.7279 20.5591 31.531 20.5591ZM34.0174 13.7644H28.4556C28.6156 13.0653 28.9427 12.5227 29.4371 12.1368C29.9315 11.7508 30.5568 11.5578 31.3129 11.5578C31.9527 11.5578 32.5234 11.7399 33.025 12.104C33.5268 12.4681 33.8575 13.0216 34.0174 13.7644ZM43.5272 20.5591C45.054 20.5591 46.2391 20.0275 47.0825 18.9643V20.2533H49.8961V9.32931H47.0825V10.6183C46.2391 9.55507 45.054 9.02343 43.5272 9.02343C42.0732 9.02343 40.8263 9.58055 39.7866 10.6948C38.7469 11.809 38.2271 13.1745 38.2271 14.7913C38.2271 16.408 38.7469 17.7735 39.7866 18.8878C40.8263 20.002 42.0732 20.5591 43.5272 20.5591ZM44.0506 17.8719C43.1783 17.8719 42.4585 17.5878 41.8914 17.0197C41.3243 16.4372 41.0408 15.6943 41.0408 14.7913C41.0408 13.8883 41.3243 13.149 41.8914 12.5737C42.4585 11.9984 43.1783 11.7107 44.0506 11.7107C44.9231 11.7107 45.6465 11.9984 46.2209 12.5737C46.7952 13.149 47.0825 13.8883 47.0825 14.7913C47.0825 15.6943 46.7952 16.4335 46.2209 17.0088C45.6465 17.5841 44.9231 17.8719 44.0506 17.8719ZM55.2617 20.2533V15.2938L59.2313 20.2533H62.503L57.9881 14.7257L62.3722 9.32931H59.0133L55.2617 14.1359V4.95972H52.448V20.2533H55.2617ZM69.1773 20.5373C70.7768 20.5373 72.1364 19.9838 73.256 18.8769C74.3756 17.7699 74.9355 16.408 74.9355 14.7913C74.9355 13.1745 74.3756 11.8127 73.256 10.7057C72.1364 9.59876 70.7768 9.04528 69.1773 9.04528C67.5778 9.04528 66.2219 9.59876 65.1094 10.7057C63.9971 11.8127 63.4409 13.1745 63.4409 14.7913C63.4409 16.408 63.9971 17.7699 65.1094 18.8769C66.2219 19.9838 67.5778 20.5373 69.1773 20.5373ZM69.1773 18.6803C68.1013 18.6803 67.1924 18.3088 66.4509 17.566C65.7093 16.8232 65.3385 15.8983 65.3385 14.7913C65.3385 13.6843 65.7093 12.7594 66.4509 12.0166C67.1924 11.2738 68.1013 10.9024 69.1773 10.9024C70.2679 10.9024 71.184 11.2738 71.9255 12.0166C72.6671 12.7594 73.0379 13.6843 73.0379 14.7913C73.0379 15.8983 72.6671 16.8232 71.9255 17.566C71.184 18.3088 70.2679 18.6803 69.1773 18.6803ZM81.1734 20.5373C82.7584 20.5373 83.9363 19.9182 84.7069 18.6803V20.2533H86.6045V9.32931H84.7069V15.119C84.7069 16.3425 84.416 17.2492 83.8344 17.8391C83.2528 18.4289 82.4894 18.7239 81.5443 18.7239C80.7009 18.7239 80.0393 18.48 79.5594 17.992C79.0796 17.504 78.8396 16.8158 78.8396 15.9273V9.32931H76.9421V16.0366C76.9421 17.4203 77.3275 18.5164 78.0981 19.3248C78.8688 20.1331 79.8939 20.5373 81.1734 20.5373ZM91.7737 19.8491C92.5444 20.337 93.7586 20.4717 95.4163 20.2533V18.5491C94.7765 18.5782 94.2385 18.5891 93.8022 18.5819C93.366 18.5746 93.0424 18.4581 92.8316 18.2323C92.6207 18.0066 92.5154 17.6242 92.5154 17.0853V11.1645H95.4163V9.32931H92.5154V6.27059L90.6178 6.83864V9.32931H88.4584V11.1645H90.6178V17.0853C90.6178 18.4399 91.0031 19.3612 91.7737 19.8491Z" fill="#484848"/>
<path d="M99.0443 20.5598C99.4916 20.5598 99.862 20.4079 100.157 20.1039C100.452 19.7999 100.6 19.4319 100.6 18.9999C100.6 18.5679 100.452 18.1999 100.157 17.8959C99.862 17.592 99.4916 17.4399 99.0443 17.4399C98.6137 17.4399 98.247 17.592 97.9442 17.8959C97.6414 18.1999 97.4896 18.5679 97.4896 18.9999C97.4896 19.4319 97.6414 19.7999 97.9442 20.1039C98.247 20.4079 98.6137 20.5598 99.0443 20.5598Z" fill="#14CC60"/>
<path d="M46.2877 25.6297H47.2172V32.6713H46.2877V31.5728C45.762 32.4178 44.9733 32.8403 43.9218 32.8403C43.0674 32.8403 42.3914 32.5821 41.8938 32.0658C41.4055 31.54 41.1614 30.8358 41.1614 29.9533V25.6297H42.0909V29.9533C42.0909 30.5823 42.2552 31.0705 42.5838 31.4179C42.9218 31.7653 43.396 31.939 44.0063 31.939C44.6822 31.939 45.2315 31.7278 45.654 31.3053C46.0765 30.8734 46.2877 30.2115 46.2877 29.3195V25.6297Z" fill="#484848"/>
<path d="M52.0095 25.4607C52.8639 25.4607 53.5352 25.7236 54.0234 26.2494C54.521 26.7658 54.7698 27.4652 54.7698 28.3478V32.6713H53.8403V28.3478C53.8403 27.7187 53.6713 27.2305 53.3333 26.8831C53.0047 26.5357 52.5353 26.3621 51.925 26.3621C51.249 26.3621 50.6998 26.578 50.2773 27.0099C49.8548 27.4324 49.6435 28.0896 49.6435 28.9815V32.6713H48.714V25.6297H49.6435V26.7282C50.1693 25.8832 50.958 25.4607 52.0095 25.4607Z" fill="#484848"/>
<path d="M57.0412 23.9397C56.9098 24.0712 56.7502 24.1369 56.5624 24.1369C56.3746 24.1369 56.215 24.0712 56.0836 23.9397C55.9521 23.8083 55.8864 23.6487 55.8864 23.4609C55.8864 23.2731 55.9521 23.1135 56.0836 22.9821C56.215 22.8506 56.3746 22.7849 56.5624 22.7849C56.7502 22.7849 56.9098 22.8506 57.0412 22.9821C57.1727 23.1135 57.2384 23.2731 57.2384 23.4609C57.2384 23.6487 57.1727 23.8083 57.0412 23.9397ZM56.0977 32.6713V25.6297H57.0271V32.6713H56.0977Z" fill="#484848"/>
<path d="M63.6001 25.6297H64.5859L61.6989 32.6713H60.5722L57.6851 25.6297H58.671L61.1355 31.6996L63.6001 25.6297Z" fill="#484848"/>
<path d="M68.218 25.4607C69.2602 25.4607 70.1005 25.8316 70.7389 26.5733C71.3867 27.3056 71.7106 28.1741 71.7106 29.1787C71.7106 29.282 71.7013 29.4275 71.6825 29.6153H65.4999C65.5938 30.3288 65.8943 30.8969 66.4013 31.3194C66.9176 31.7325 67.5514 31.939 68.3025 31.939C68.8377 31.939 69.2977 31.831 69.6827 31.6151C70.077 31.3898 70.3727 31.0987 70.5699 30.7419L71.3867 31.2208C71.0769 31.7184 70.6544 32.1127 70.1192 32.4038C69.5841 32.6948 68.9738 32.8403 68.2884 32.8403C67.1805 32.8403 66.2792 32.493 65.5844 31.7982C64.8897 31.1034 64.5423 30.2209 64.5423 29.1505C64.5423 28.099 64.885 27.2211 65.5704 26.517C66.2557 25.8128 67.1383 25.4607 68.218 25.4607ZM68.218 26.3621C67.4857 26.3621 66.8707 26.5827 66.3731 27.024C65.8849 27.4559 65.5938 28.0192 65.4999 28.714H70.753C70.6591 27.9722 70.3727 27.3948 69.8939 26.9817C69.4151 26.5686 68.8564 26.3621 68.218 26.3621Z" fill="#484848"/>
<path d="M73.6492 26.7986C74.0811 25.9443 74.8228 25.5171 75.8744 25.5171V26.4184C75.2359 26.4184 74.7055 26.6062 74.283 26.9817C73.8605 27.3573 73.6492 27.9488 73.6492 28.7562V32.6713H72.7197V25.6297H73.6492V26.7986Z" fill="#484848"/>
<path d="M77.1361 27.4746C77.1361 27.7938 77.2769 28.0473 77.5586 28.2351C77.8402 28.4229 78.1829 28.5684 78.5866 28.6717C78.9903 28.775 79.3941 28.8923 79.7978 29.0238C80.2015 29.1458 80.5442 29.3571 80.8259 29.6575C81.1075 29.9486 81.2484 30.3335 81.2484 30.8124C81.2484 31.4132 81.0089 31.9015 80.5301 32.277C80.0607 32.6526 79.4504 32.8403 78.6993 32.8403C78.0233 32.8403 77.4459 32.6901 76.9671 32.3897C76.4976 32.0892 76.169 31.6996 75.9812 31.2208L76.7699 30.756C76.9013 31.1222 77.1361 31.4132 77.4741 31.6292C77.8214 31.8357 78.2299 31.939 78.6993 31.939C79.1593 31.939 79.5443 31.8498 79.8541 31.6714C80.1639 31.4837 80.3189 31.1973 80.3189 30.8124C80.3189 30.4931 80.178 30.2396 79.8964 30.0519C79.6147 29.8641 79.272 29.7186 78.8683 29.6153C78.4646 29.512 78.0609 29.3993 77.6571 29.2773C77.2534 29.1458 76.9107 28.9346 76.6291 28.6435C76.3474 28.3431 76.2066 27.9535 76.2066 27.4746C76.2066 26.9019 76.4319 26.4231 76.8826 26.0381C77.3426 25.6532 77.92 25.4607 78.6148 25.4607C79.1875 25.4607 79.6898 25.5922 80.1217 25.8551C80.5536 26.1086 80.8728 26.4559 81.0794 26.8972L80.3048 27.3479C80.0325 26.6907 79.4692 26.3621 78.6148 26.3621C78.2111 26.3621 77.8637 26.4606 77.5726 26.6578C77.2816 26.8456 77.1361 27.1179 77.1361 27.4746Z" fill="#484848"/>
<path d="M83.2043 23.9397C83.0729 24.0712 82.9133 24.1369 82.7255 24.1369C82.5377 24.1369 82.3781 24.0712 82.2467 23.9397C82.1152 23.8083 82.0495 23.6487 82.0495 23.4609C82.0495 23.2731 82.1152 23.1135 82.2467 22.9821C82.3781 22.8506 82.5377 22.7849 82.7255 22.7849C82.9133 22.7849 83.0729 22.8506 83.2043 22.9821C83.3358 23.1135 83.4015 23.2731 83.4015 23.4609C83.4015 23.6487 83.3358 23.8083 83.2043 23.9397ZM82.2607 32.6713V25.6297H83.1902V32.6713H82.2607Z" fill="#484848"/>
<path d="M88.4253 26.5311H86.3973V30.7983C86.3973 31.1832 86.4724 31.4602 86.6226 31.6292C86.7728 31.7888 86.9982 31.8733 87.2986 31.8827C87.5991 31.8827 87.9746 31.8733 88.4253 31.8545V32.6713C87.4394 32.8216 86.6977 32.7511 86.2001 32.4601C85.7119 32.169 85.4678 31.6151 85.4678 30.7983V26.5311H83.9891V25.6297H85.4678V23.9397L86.3973 23.6581V25.6297H88.4253V26.5311Z" fill="#484848"/>
<path d="M94.7125 25.6297H95.6983L92.6845 33.3192C92.4122 34.0139 92.0226 34.5585 91.5156 34.9528C91.018 35.3565 90.4593 35.5349 89.8397 35.488V34.6148C90.6847 34.7087 91.3278 34.2205 91.7691 33.1502L91.9522 32.7136L88.7975 25.6297H89.7833L92.431 31.5306L94.7125 25.6297Z" fill="#484848"/>
</svg>
