<svg width="24" height="24" viewBox="0 0 24 24" fill="none" xmlns="http://www.w3.org/2000/svg">
<path d="M19.624 5.39005C18.2218 4.74665 16.7181 4.27263 15.146 4.00114C15.1173 3.9959 15.0887 4.00899 15.074 4.03518C14.8806 4.37913 14.6664 4.82784 14.5164 5.18052C12.8254 4.92736 11.1431 4.92736 9.48686 5.18052C9.33682 4.82 9.11484 4.37913 8.92059 4.03518C8.90584 4.00987 8.87724 3.99677 8.84861 4.00114C7.27731 4.27176 5.77366 4.74579 4.37058 5.39005C4.35844 5.39528 4.34803 5.40402 4.34112 5.41536C1.489 9.67636 0.70769 13.8326 1.09098 17.9374C1.09271 17.9574 1.10398 17.9766 1.11959 17.9889C3.00134 19.3708 4.82413 20.2097 6.61307 20.7658C6.6417 20.7745 6.67203 20.764 6.69025 20.7405C7.11343 20.1626 7.49065 19.5532 7.81408 18.9125C7.83317 18.8749 7.81495 18.8304 7.77594 18.8156C7.1776 18.5886 6.60786 18.3119 6.05981 17.9976C6.01646 17.9723 6.01299 17.9103 6.05287 17.8806C6.1682 17.7942 6.28356 17.7043 6.39369 17.6135C6.41361 17.5969 6.44137 17.5934 6.4648 17.6039C10.0652 19.2477 13.9631 19.2477 17.5211 17.6039C17.5445 17.5925 17.5723 17.596 17.5931 17.6126C17.7032 17.7034 17.8186 17.7942 17.9348 17.8806C17.9746 17.9103 17.972 17.9723 17.9287 17.9976C17.3806 18.318 16.8109 18.5886 16.2117 18.8147C16.1727 18.8295 16.1553 18.8749 16.1744 18.9125C16.5048 19.5523 16.882 20.1617 17.2974 20.7396C17.3147 20.764 17.3459 20.7745 17.3746 20.7658C19.1722 20.2097 20.995 19.3708 22.8767 17.9889C22.8932 17.9766 22.9036 17.9583 22.9053 17.9382C23.3641 13.1927 22.137 9.07052 19.6526 5.41623C19.6465 5.40402 19.6361 5.39528 19.624 5.39005ZM8.35175 15.438C7.26777 15.438 6.3746 14.4428 6.3746 13.2207C6.3746 11.9985 7.25045 11.0033 8.35175 11.0033C9.46169 11.0033 10.3462 12.0072 10.3289 13.2207C10.3289 14.4428 9.45302 15.438 8.35175 15.438ZM15.6619 15.438C14.578 15.438 13.6848 14.4428 13.6848 13.2207C13.6848 11.9985 14.5606 11.0033 15.6619 11.0033C16.7719 11.0033 17.6564 12.0072 17.6391 13.2207C17.6391 14.4428 16.7719 15.438 15.6619 15.438Z" fill="white"/>
</svg>
