<svg width="121" height="39" viewBox="0 0 121 39" fill="none" xmlns="http://www.w3.org/2000/svg">
<path d="M8.81276 19.699C10.6485 19.699 12.2162 19.0026 13.5158 17.6098C14.8154 16.217 15.4652 14.5101 15.4652 12.4892C15.4652 10.4682 14.8154 8.76136 13.5158 7.36856C12.2162 5.97575 10.6485 5.27935 8.81276 5.27935C6.90427 5.27935 5.43201 5.94389 4.39597 7.27297V0.199707H0.878906V19.3166H4.39597V17.7054C5.43201 19.0344 6.90427 19.699 8.81276 19.699ZM8.15842 16.3399C7.06786 16.3399 6.16814 15.9849 5.45927 15.2747C4.75041 14.5466 4.39597 13.618 4.39597 12.4892C4.39597 11.3604 4.75041 10.4364 5.45927 9.71721C6.16814 8.99805 7.06786 8.63847 8.15842 8.63847C9.24899 8.63847 10.1532 8.99805 10.8712 9.71721C11.5892 10.4364 11.9481 11.3604 11.9481 12.4892C11.9481 13.618 11.5892 14.5419 10.8712 15.2611C10.1532 15.9802 9.24899 16.3399 8.15842 16.3399ZM21.4633 19.3166V12.7896C21.4633 11.4787 21.8859 10.5411 22.731 9.97666C23.5763 9.41224 24.535 9.19378 25.6075 9.32122V5.38859C24.6805 5.38859 23.8398 5.60707 23.0855 6.04403C22.3312 6.48099 21.7905 7.13642 21.4633 8.01034V5.66169H17.9462V19.3166H21.4633ZM34.4138 19.699C37.0311 19.699 39.0123 18.7249 40.3574 16.7768L37.5218 15.1383C36.8311 16.0485 35.8133 16.5037 34.4683 16.5037C32.3781 16.5037 31.0966 15.648 30.6241 13.9365H40.9027C40.9935 13.4268 41.0389 12.9443 41.0389 12.4892C41.0389 10.45 40.3892 8.73861 39.0895 7.3549C37.79 5.9712 36.1404 5.27935 34.1411 5.27935C32.0327 5.27935 30.306 5.96665 28.961 7.34125C27.6158 8.71585 26.9433 10.4318 26.9433 12.4892C26.9433 14.5647 27.625 16.2852 28.9882 17.6508C30.3514 19.0163 32.1599 19.699 34.4138 19.699ZM37.5218 11.2056H30.5695C30.7695 10.3317 31.1784 9.65349 31.7964 9.17101C32.4144 8.68854 33.196 8.4473 34.1411 8.4473C34.9409 8.4473 35.6543 8.67489 36.2813 9.13004C36.9084 9.58521 37.3219 10.2771 37.5218 11.2056ZM49.409 19.699C51.3175 19.699 52.7988 19.0344 53.8531 17.7054V19.3166H57.3701V5.66169H53.8531V7.27297C52.7988 5.94389 51.3175 5.27935 49.409 5.27935C47.5914 5.27935 46.0329 5.97575 44.7332 7.36856C43.4337 8.76136 42.7838 10.4682 42.7838 12.4892C42.7838 14.5101 43.4337 16.217 44.7332 17.6098C46.0329 19.0026 47.5914 19.699 49.409 19.699ZM50.0633 16.3399C48.9728 16.3399 48.0731 15.9849 47.3642 15.2747C46.6554 14.5466 46.3009 13.618 46.3009 12.4892C46.3009 11.3604 46.6554 10.4364 47.3642 9.71721C48.0731 8.99805 48.9728 8.63847 50.0633 8.63847C51.1539 8.63847 52.0582 8.99805 52.7762 9.71721C53.4941 10.4364 53.8531 11.3604 53.8531 12.4892C53.8531 13.618 53.4941 14.5419 52.7762 15.2611C52.0582 15.9802 51.1539 16.3399 50.0633 16.3399ZM64.0772 19.3166V13.1173L69.0392 19.3166H73.1288L67.4851 12.4072L72.9652 5.66169H68.7666L64.0772 11.6699V0.199707H60.5601V19.3166H64.0772ZM81.4716 19.6717C83.471 19.6717 85.1704 18.9798 86.57 17.5961C87.9695 16.2124 88.6694 14.5101 88.6694 12.4892C88.6694 10.4682 87.9695 8.76591 86.57 7.38222C85.1704 5.99851 83.471 5.30666 81.4716 5.30666C79.4723 5.30666 77.7773 5.99851 76.3868 7.38222C74.9964 8.76591 74.3011 10.4682 74.3011 12.4892C74.3011 14.5101 74.9964 16.2124 76.3868 17.5961C77.7773 18.9798 79.4723 19.6717 81.4716 19.6717ZM81.4716 17.3504C80.1266 17.3504 78.9905 16.8861 78.0636 15.9576C77.1366 15.029 76.6732 13.8729 76.6732 12.4892C76.6732 11.1055 77.1366 9.94934 78.0636 9.02081C78.9905 8.09227 80.1266 7.628 81.4716 7.628C82.8348 7.628 83.9799 8.09227 84.9069 9.02081C85.8338 9.94934 86.2974 11.1055 86.2974 12.4892C86.2974 13.8729 85.8338 15.029 84.9069 15.9576C83.9799 16.8861 82.8348 17.3504 81.4716 17.3504ZM96.4668 19.6717C98.448 19.6717 99.9204 18.8979 100.884 17.3504V19.3166H103.256V5.66169H100.884V12.8988C100.884 14.4281 100.52 15.5616 99.793 16.2989C99.066 17.0362 98.1117 17.4049 96.9304 17.4049C95.8761 17.4049 95.0491 17.1 94.4493 16.4901C93.8495 15.8801 93.5495 15.0199 93.5495 13.9092V5.66169H91.1776V14.0458C91.1776 15.7755 91.6593 17.1455 92.6226 18.156C93.586 19.1664 94.8674 19.6717 96.4668 19.6717ZM109.717 18.8114C110.681 19.4213 112.198 19.5897 114.27 19.3166V17.1865C113.471 17.2228 112.798 17.2365 112.253 17.2275C111.708 17.2183 111.303 17.0727 111.039 16.7905C110.776 16.5083 110.644 16.0304 110.644 15.3567V7.95573H114.27V5.66169H110.644V1.8383L108.272 2.54836V5.66169H105.573V7.95573H108.272V15.3567C108.272 17.0499 108.754 18.2015 109.717 18.8114Z" fill="white"/>
<path d="M118.805 19.6997C119.365 19.6997 119.828 19.5097 120.197 19.1297C120.565 18.7497 120.75 18.2897 120.75 17.7497C120.75 17.2098 120.565 16.7498 120.197 16.3698C119.828 15.9899 119.365 15.7998 118.805 15.7998C118.267 15.7998 117.809 15.9899 117.43 16.3698C117.052 16.7498 116.862 17.2098 116.862 17.7497C116.862 18.2897 117.052 18.7497 117.43 19.1297C117.809 19.5097 118.267 19.6997 118.805 19.6997Z" fill="#14CC60"/>
<path d="M52.8597 26.0372H54.0216V34.8392H52.8597V33.4661C52.2025 34.5224 51.2167 35.0505 49.9022 35.0505C48.8343 35.0505 47.9893 34.7277 47.3673 34.0823C46.757 33.425 46.4518 32.5448 46.4518 31.4417V26.0372H47.6137V31.4417C47.6137 32.228 47.8191 32.8382 48.2299 33.2725C48.6523 33.7067 49.245 33.9238 50.0079 33.9238C50.8529 33.9238 51.5394 33.6598 52.0675 33.1316C52.5957 32.5918 52.8597 31.7644 52.8597 30.6495V26.0372Z" fill="#A3A5A7"/>
<path d="M60.0119 25.826C61.0799 25.826 61.9191 26.1546 62.5293 26.8118C63.1513 27.4573 63.4623 28.3316 63.4623 29.4348V34.8392H62.3005V29.4348C62.3005 28.6485 62.0892 28.0382 61.6667 27.604C61.256 27.1697 60.6692 26.9526 59.9063 26.9526C59.0613 26.9526 58.3748 27.2226 57.8467 27.7624C57.3185 28.2905 57.0545 29.1121 57.0545 30.227V34.8392H55.8926V26.0372H57.0545V27.4103C57.7117 26.3541 58.6975 25.826 60.0119 25.826Z" fill="#A3A5A7"/>
<path d="M66.3016 23.9247C66.1373 24.089 65.9378 24.1712 65.703 24.1712C65.4683 24.1712 65.2688 24.089 65.1045 23.9247C64.9402 23.7604 64.8581 23.5609 64.8581 23.3262C64.8581 23.0915 64.9402 22.892 65.1045 22.7277C65.2688 22.5634 65.4683 22.4812 65.703 22.4812C65.9378 22.4812 66.1373 22.5634 66.3016 22.7277C66.4659 22.892 66.548 23.0915 66.548 23.3262C66.548 23.5609 66.4659 23.7604 66.3016 23.9247ZM65.1221 34.8392V26.0372H66.284V34.8392H65.1221Z" fill="#A3A5A7"/>
<path d="M74.5002 26.0372H75.7324L72.1236 34.8392H70.7153L67.1065 26.0372H68.3387L71.4195 33.6246L74.5002 26.0372Z" fill="#A3A5A7"/>
<path d="M80.2725 25.826C81.5752 25.826 82.6256 26.2895 83.4237 27.2167C84.2335 28.1321 84.6383 29.2177 84.6383 30.4734C84.6383 30.6025 84.6266 30.7844 84.6031 31.0192H76.875C76.9923 31.9111 77.3679 32.6211 78.0016 33.1492C78.6471 33.6656 79.4393 33.9238 80.3782 33.9238C81.0471 33.9238 81.6222 33.7889 82.1034 33.5189C82.5963 33.2373 82.966 32.8735 83.2124 32.4275L84.2335 33.026C83.8462 33.648 83.318 34.1409 82.6491 34.5048C81.9801 34.8686 81.2173 35.0505 80.3606 35.0505C78.9757 35.0505 77.8491 34.6162 76.9806 33.7478C76.1121 32.8793 75.6779 31.7761 75.6779 30.4382C75.6779 29.1238 76.1063 28.0265 76.963 27.1463C77.8197 26.2661 78.9229 25.826 80.2725 25.826ZM80.2725 26.9526C79.3571 26.9526 78.5884 27.2284 77.9664 27.78C77.3561 28.3199 76.9923 29.024 76.875 29.8925H83.4413C83.3239 28.9654 82.966 28.2436 82.3674 27.7272C81.7689 27.2108 81.0706 26.9526 80.2725 26.9526Z" fill="#A3A5A7"/>
<path d="M87.0616 27.4984C87.6014 26.4304 88.5286 25.8964 89.843 25.8964V27.023C89.0449 27.023 88.3819 27.2578 87.8537 27.7272C87.3256 28.1966 87.0616 28.936 87.0616 29.9453V34.8392H85.8997V26.0372H87.0616V27.4984Z" fill="#A3A5A7"/>
<path d="M91.4201 28.3433C91.4201 28.7424 91.5962 29.0592 91.9482 29.294C92.3003 29.5287 92.7287 29.7106 93.2333 29.8397C93.738 29.9688 94.2426 30.1155 94.7473 30.2798C95.2519 30.4324 95.6803 30.6964 96.0324 31.072C96.3845 31.4358 96.5605 31.917 96.5605 32.5155C96.5605 33.2666 96.2612 33.8769 95.6627 34.3463C95.0759 34.8158 94.313 35.0505 93.3742 35.0505C92.5292 35.0505 91.8074 34.8627 91.2089 34.4872C90.6221 34.1116 90.2113 33.6246 89.9766 33.026L90.9624 32.4451C91.1267 32.9028 91.4201 33.2666 91.8426 33.5365C92.2768 33.7947 92.7874 33.9238 93.3742 33.9238C93.9492 33.9238 94.4304 33.8123 94.8177 33.5893C95.205 33.3546 95.3986 32.9967 95.3986 32.5155C95.3986 32.1165 95.2226 31.7996 94.8705 31.5649C94.5184 31.3302 94.0901 31.1483 93.5854 31.0192C93.0808 30.8901 92.5761 30.7492 92.0715 30.5967C91.5668 30.4324 91.1384 30.1683 90.7864 29.8045C90.4343 29.4289 90.2582 28.9419 90.2582 28.3433C90.2582 27.6274 90.5399 27.0289 91.1032 26.5477C91.6783 26.0666 92.4001 25.826 93.2685 25.826C93.9844 25.826 94.6123 25.9903 95.1522 26.3189C95.692 26.6358 96.0911 27.07 96.3492 27.6216L95.381 28.1849C95.0407 27.3634 94.3365 26.9526 93.2685 26.9526C92.7639 26.9526 92.3297 27.0759 91.9658 27.3223C91.602 27.557 91.4201 27.8974 91.4201 28.3433Z" fill="#A3A5A7"/>
<path d="M99.0054 23.9247C98.8411 24.089 98.6416 24.1712 98.4069 24.1712C98.1722 24.1712 97.9727 24.089 97.8084 23.9247C97.6441 23.7604 97.5619 23.5609 97.5619 23.3262C97.5619 23.0915 97.6441 22.892 97.8084 22.7277C97.9727 22.5634 98.1722 22.4812 98.4069 22.4812C98.6416 22.4812 98.8411 22.5634 99.0054 22.7277C99.1697 22.892 99.2519 23.0915 99.2519 23.3262C99.2519 23.5609 99.1697 23.7604 99.0054 23.9247ZM97.826 34.8392V26.0372H98.9878V34.8392H97.826Z" fill="#A3A5A7"/>
<path d="M105.532 27.1639H102.997V32.4979C102.997 32.9791 103.091 33.3253 103.278 33.5365C103.466 33.736 103.748 33.8417 104.123 33.8534C104.499 33.8534 104.968 33.8417 105.532 33.8182V34.8392C104.299 35.027 103.372 34.939 102.75 34.5752C102.14 34.2114 101.835 33.5189 101.835 32.4979V27.1639H99.9864V26.0372H101.835V23.9247L102.997 23.5727V26.0372H105.532V27.1639Z" fill="#A3A5A7"/>
<path d="M113.391 26.0372H114.623L110.856 35.649C110.515 36.5175 110.028 37.1982 109.395 37.6911C108.773 38.1957 108.074 38.4187 107.3 38.36V37.2686C108.356 37.386 109.16 36.7757 109.711 35.4378L109.94 34.892L105.997 26.0372H107.229L110.539 33.4133L113.391 26.0372Z" fill="#A3A5A7"/>
</svg>
