<svg width="88" height="88" viewBox="0 0 88 88" fill="none" xmlns="http://www.w3.org/2000/svg">
<g filter="url(#filter0_d_1_513)">
<rect x="9" y="6" width="70" height="70" rx="20" fill="white"/>
</g>
<path d="M32.2642 57.3975L27.084 52.2173C26.87 52.0033 26.87 51.6565 27.084 51.4425L28.8333 49.6931L34.7884 55.6481L33.039 57.3975C32.825 57.6115 32.4782 57.6115 32.2642 57.3975V57.3975Z" fill="#B163FF"/>
<path d="M29.1627 50.0211L25.4209 46.2793C24.993 45.8515 24.993 45.1577 25.4209 44.7298L35.3085 34.8422C35.5102 34.6406 35.7823 34.5255 36.0675 34.5215L44.7878 34.396L29.1627 50.0211Z" fill="#63A1FF"/>
<path d="M27.7477 42.4026L25.4204 44.7299C24.9926 45.1578 24.9926 45.8515 25.4204 46.2794L29.1622 50.0212L32.2642 46.9192L27.7477 42.4026Z" fill="#B163FF"/>
<path d="M34.4603 55.3209L38.2021 59.0627C38.6299 59.4906 39.3237 59.4906 39.7516 59.0627L49.6392 49.1751C49.8407 48.9735 49.9559 48.7013 49.9599 48.4161L50.0854 39.6958L34.4603 55.3209Z" fill="#63A1FF"/>
<path opacity="0.1" d="M50.0857 39.6948L50.0126 44.7968C48.3386 46.1977 46.0488 46.4853 44.1207 45.6598L50.0857 39.6948Z" fill="black"/>
<path opacity="0.1" d="M50.0848 39.6948L50.0415 42.7033L39.0447 53.7011L35.9429 56.8029L34.4603 55.3203L37.5621 52.2185L50.0848 39.6948Z" fill="black"/>
<path d="M37.5646 52.2185L34.4626 55.3205L38.2044 59.0623C38.6322 59.4902 39.326 59.4902 39.7538 59.0623L42.0812 56.735L37.5646 52.2185Z" fill="#B163FF"/>
<path opacity="0.1" d="M34.4566 55.3184L37.5579 52.217L39.0403 53.6994L35.939 56.8007L34.4566 55.3184Z" fill="black"/>
<path d="M53.4912 25.0327L59.4453 30.9868L34.7917 55.6404L28.8376 49.6863L53.4912 25.0327Z" fill="white"/>
<path d="M51.7784 38.66L44.5992 45.8392C43.7727 45.5708 42.9963 45.108 42.3402 44.4518C40.1168 42.2284 40.1168 38.6244 42.3402 36.401C44.5636 34.1775 48.1686 34.1775 50.392 36.401C51.0482 37.0571 51.51 37.8345 51.7784 38.66V38.66Z" fill="#FFEEEE"/>
<path d="M34.7092 43.8154L40.6633 49.7695L39.1392 51.2937L33.1851 45.3396L34.7092 43.8154Z" fill="#FF7300"/>
<path d="M53.4924 25.0359C55.5378 22.9906 59.5164 21.4453 62.1056 22.3787C63.039 24.9679 61.4929 28.9456 59.4475 30.9909L53.4924 25.0359Z" fill="#B163FF"/>
<path d="M53.455 33.1649C54.6352 33.1649 55.592 32.2081 55.592 31.0279C55.592 29.8476 54.6352 28.8909 53.455 28.8909C52.2747 28.8909 51.318 29.8476 51.318 31.0279C51.318 32.2081 52.2747 33.1649 53.455 33.1649Z" fill="#FF6C6C"/>
<path opacity="0.4" d="M54.9674 32.5397C54.1334 33.3738 52.7803 33.3745 51.9454 32.5397C51.789 32.3833 51.6617 32.2085 51.5645 32.0227H55.3483C55.251 32.2084 55.1238 32.3833 54.9674 32.5397Z" fill="white"/>
<path opacity="0.4" d="M55.5416 31.4872H51.3686C51.3216 31.2811 51.3073 31.0668 51.3257 30.8552H55.5845C55.6021 31.0661 55.5871 31.2798 55.5416 31.4872V31.4872Z" fill="white"/>
<path d="M34.7886 55.6482L28.8336 49.6932L53.4909 25.0359L59.446 30.9909L34.7886 55.6482Z" fill="#637BFF"/>
<path d="M46.3664 43.8104C49.5105 43.8104 52.0594 41.2615 52.0594 38.1174C52.0594 34.9732 49.5105 32.4243 46.3664 32.4243C43.2222 32.4243 40.6733 34.9732 40.6733 38.1174C40.6733 41.2615 43.2222 43.8104 46.3664 43.8104Z" fill="#63A1FF"/>
<defs>
<filter id="filter0_d_1_513" x="0.272727" y="0.181818" width="87.4545" height="87.4545" filterUnits="userSpaceOnUse" color-interpolation-filters="sRGB">
<feFlood flood-opacity="0" result="BackgroundImageFix"/>
<feColorMatrix in="SourceAlpha" type="matrix" values="0 0 0 0 0 0 0 0 0 0 0 0 0 0 0 0 0 0 127 0" result="hardAlpha"/>
<feOffset dy="2.90909"/>
<feGaussianBlur stdDeviation="4.36364"/>
<feColorMatrix type="matrix" values="0 0 0 0 0 0 0 0 0 0 0 0 0 0 0 0 0 0 0.06 0"/>
<feBlend mode="normal" in2="BackgroundImageFix" result="effect1_dropShadow_1_513"/>
<feBlend mode="normal" in="SourceGraphic" in2="effect1_dropShadow_1_513" result="shape"/>
</filter>
</defs>
</svg>
