<svg width="54" height="51" viewBox="0 0 54 51" fill="none" xmlns="http://www.w3.org/2000/svg">
<g filter="url(#filter0_d_1_1312)">
<rect x="9" y="3" width="36" height="36" rx="10" fill="white"/>
</g>
<path d="M23.5036 25.6589H28.7341V30.0493H23.5036V25.6589Z" fill="#63A1FF"/>
<path d="M31.372 31.2664H20.8667C20.6089 31.2664 20.3999 31.0574 20.3999 30.7996V30.1959C20.3999 29.4225 21.027 28.7954 21.8004 28.7954H30.4383C31.2118 28.7954 31.8388 29.4225 31.8388 30.1959V30.7996C31.8388 31.0574 31.6298 31.2664 31.372 31.2664Z" fill="#B163FF"/>
<path d="M28.7801 20.3871C27.2743 19.0455 27.5919 16.7891 27.5919 16.7891C28.3197 16.9768 29.3217 16.9846 30.6783 16.5541L31.3996 16.9239C31.8171 17.1379 32.3279 17.0233 32.614 16.6515L33.1927 15.8991C33.3565 15.6862 33.3166 15.381 33.1037 15.2173L31.0457 13.6343L30.9768 13.0668C30.9223 12.6185 30.6243 12.237 30.2023 12.0756L29.2825 11.7238L29.9103 10.4046C28.862 10.2156 28.049 10.7674 27.5259 11.3078C25.7677 11.6905 19.5258 13.6253 20.7492 21.6556C20.8832 22.5348 21.2753 24.6308 21.4995 25.8143C21.5931 26.3084 22.0247 26.6658 22.5275 26.6658H29.6574C31.6067 26.6658 32.6409 24.358 31.3387 22.9073C30.6832 22.1769 29.8469 21.3375 28.7801 20.3871V20.3871Z" fill="#637BFF"/>
<path opacity="0.3" d="M24.4542 16.8637C24.4223 16.6084 24.1902 16.4268 23.9342 16.4581C23.6783 16.4894 23.4962 16.7223 23.5276 16.9782C23.5397 17.0771 23.8472 19.4216 25.8498 21.2043C25.9387 21.2835 26.0497 21.3224 26.16 21.3224C26.2887 21.3224 26.4167 21.2696 26.5088 21.1661C26.6803 20.9734 26.6631 20.6784 26.4706 20.5069C24.7408 18.9672 24.4571 16.8875 24.4542 16.8637V16.8637Z" fill="white"/>
<g opacity="0.3">
<path d="M24.0299 24.7759C23.741 24.7759 23.5068 24.5416 23.5068 24.2527V24.2407C23.5068 23.9518 23.741 23.7175 24.0299 23.7175C24.3188 23.7175 24.5531 23.9518 24.5531 24.2407V24.2527C24.5531 24.5416 24.3188 24.7759 24.0299 24.7759Z" fill="white"/>
</g>
<path opacity="0.3" d="M23.5072 22.4812C23.5072 22.1923 23.7415 21.958 24.0304 21.958C24.3192 21.958 24.5535 22.1923 24.5535 22.4812V22.4932C24.5535 22.7821 24.3192 23.0164 24.0304 23.0164C23.7415 23.0164 23.5072 22.7821 23.5072 22.4932" fill="white"/>
<g opacity="0.3">
<path d="M25.8976 24.7759C25.6087 24.7759 25.3745 24.5416 25.3745 24.2527V24.2407C25.3745 23.9518 25.6087 23.7175 25.8976 23.7175C26.1865 23.7175 26.4207 23.9518 26.4207 24.2407V24.2527C26.4207 24.5416 26.1865 24.7759 25.8976 24.7759Z" fill="white"/>
</g>
<path opacity="0.3" d="M27.7639 24.7759C27.475 24.7759 27.2408 24.5416 27.2408 24.2527V24.2407C27.2408 23.9518 27.475 23.7175 27.7639 23.7175C28.0528 23.7175 28.2871 23.9518 28.2871 24.2407V24.2527C28.287 24.5416 28.0528 24.7759 27.7639 24.7759Z" fill="white"/>
<defs>
<filter id="filter0_d_1_1312" x="0.272727" y="-2.81818" width="53.4545" height="53.4545" filterUnits="userSpaceOnUse" color-interpolation-filters="sRGB">
<feFlood flood-opacity="0" result="BackgroundImageFix"/>
<feColorMatrix in="SourceAlpha" type="matrix" values="0 0 0 0 0 0 0 0 0 0 0 0 0 0 0 0 0 0 127 0" result="hardAlpha"/>
<feOffset dy="2.90909"/>
<feGaussianBlur stdDeviation="4.36364"/>
<feColorMatrix type="matrix" values="0 0 0 0 0 0 0 0 0 0 0 0 0 0 0 0 0 0 0.06 0"/>
<feBlend mode="normal" in2="BackgroundImageFix" result="effect1_dropShadow_1_1312"/>
<feBlend mode="normal" in="SourceGraphic" in2="effect1_dropShadow_1_1312" result="shape"/>
</filter>
</defs>
</svg>
