<svg width="54" height="54" viewBox="0 0 54 54" fill="none" xmlns="http://www.w3.org/2000/svg">
<g filter="url(#filter0_d_1_1333)">
<rect x="9" y="6" width="36" height="36" rx="10" fill="white"/>
</g>
<path d="M35.0812 20.3864V33.0415H18.0723V18.116L21.7461 21.7894L24.3053 19.2307L30.2711 25.1965L35.0812 20.3864Z" fill="#637BFF"/>
<path d="M35.0799 20.3865V33.0415H30.2698V25.1965L35.0799 20.3865Z" fill="#63A1FF"/>
<path d="M21.7461 21.7894V33.0415H18.0723V18.116L21.7461 21.7894Z" fill="#B163FF"/>
<path d="M30.0294 25.132V25.7752C30.0294 25.9069 30.1362 26.0138 30.268 26.0138C30.3998 26.0138 30.5066 25.9069 30.5066 25.7752L30.5078 25.125C30.5078 25.125 30.5349 24.8589 30.2712 24.8589C30.0075 24.8589 30.0294 25.132 30.0294 25.132V25.132Z" fill="#92A3FF"/>
<path d="M18.3106 15.0721C18.3106 14.9403 18.2038 14.8335 18.072 14.8335C17.9402 14.8335 17.8334 14.9403 17.8334 15.0721V28.471C17.8334 28.6027 17.9402 28.7095 18.072 28.7095C18.2038 28.7095 18.3106 28.6027 18.3106 28.471V15.0721Z" fill="#637BFF"/>
<path d="M21.7465 21.4514C21.5079 21.4514 21.5079 21.6649 21.5079 21.6649V22.2787C21.5079 22.4105 21.6147 22.5173 21.7465 22.5173C21.8783 22.5173 21.9851 22.4105 21.9851 22.2787V21.6649C21.9851 21.6649 21.9851 21.4514 21.7465 21.4514Z" fill="#92A3FF"/>
<path d="M36.0413 32.8028H30.5065V32.4625C30.5065 32.3308 30.3997 32.2239 30.2679 32.2239C30.1361 32.2239 30.0293 32.3308 30.0293 32.4625V32.8028H21.9847V32.5514C21.9847 32.4196 21.8779 32.3128 21.7461 32.3128C21.6143 32.3128 21.5075 32.4196 21.5075 32.5514V32.8028H18.3107V30.0452C18.3107 29.9135 18.2039 29.8066 18.0721 29.8066C17.9403 29.8066 17.8335 29.9135 17.8335 30.0452V33.0414C17.8335 33.1731 17.9403 33.28 18.0721 33.28H36.0413C36.1731 33.28 36.2799 33.1731 36.2799 33.0414C36.2799 32.9096 36.1731 32.8028 36.0413 32.8028V32.8028Z" fill="#637BFF"/>
<path d="M21.7465 24.055C21.8783 24.055 21.9851 23.9482 21.9851 23.8164V23.3265C21.9851 23.1947 21.8783 23.0879 21.7465 23.0879C21.6147 23.0879 21.5079 23.1947 21.5079 23.3265V23.8164C21.5079 23.9482 21.6147 24.055 21.7465 24.055Z" fill="#92A3FF"/>
<path d="M21.5079 25.354C21.5079 25.4858 21.6147 25.5926 21.7465 25.5926C21.8783 25.5926 21.9851 25.4858 21.9851 25.354V24.8641C21.9851 24.7323 21.8783 24.6255 21.7465 24.6255C21.6147 24.6255 21.5079 24.7323 21.5079 24.8641V25.354Z" fill="#92A3FF"/>
<path d="M21.5079 31.014V31.5039C21.5079 31.6357 21.6147 31.7425 21.7465 31.7425C21.8783 31.7425 21.9851 31.6357 21.9851 31.5039V31.014C21.9851 30.8822 21.8783 30.7754 21.7465 30.7754C21.6147 30.7754 21.5079 30.8822 21.5079 31.014Z" fill="#92A3FF"/>
<path d="M30.507 28.8292C30.507 28.6974 30.4002 28.5906 30.2684 28.5906C30.1366 28.5906 30.0298 28.6974 30.0298 28.8292V29.408C30.0298 29.5398 30.1366 29.6466 30.2684 29.6466C30.4002 29.6466 30.507 29.5398 30.507 29.408V28.8292Z" fill="#92A3FF"/>
<path d="M30.2684 30.4072C30.1366 30.4072 30.0298 30.5141 30.0298 30.6458V31.2246C30.0298 31.3564 30.1366 31.4632 30.2684 31.4632C30.4002 31.4632 30.507 31.3564 30.507 31.2246V30.6458C30.507 30.5141 30.4002 30.4072 30.2684 30.4072Z" fill="#92A3FF"/>
<path d="M30.507 27.0128C30.507 26.881 30.4002 26.7742 30.2684 26.7742C30.1366 26.7742 30.0298 26.881 30.0298 27.0128V27.5916C30.0298 27.7233 30.1366 27.8302 30.2684 27.8302C30.4002 27.8302 30.507 27.7233 30.507 27.5916V27.0128Z" fill="#92A3FF"/>
<defs>
<filter id="filter0_d_1_1333" x="0.272727" y="0.181818" width="53.4545" height="53.4545" filterUnits="userSpaceOnUse" color-interpolation-filters="sRGB">
<feFlood flood-opacity="0" result="BackgroundImageFix"/>
<feColorMatrix in="SourceAlpha" type="matrix" values="0 0 0 0 0 0 0 0 0 0 0 0 0 0 0 0 0 0 127 0" result="hardAlpha"/>
<feOffset dy="2.90909"/>
<feGaussianBlur stdDeviation="4.36364"/>
<feColorMatrix type="matrix" values="0 0 0 0 0 0 0 0 0 0 0 0 0 0 0 0 0 0 0.06 0"/>
<feBlend mode="normal" in2="BackgroundImageFix" result="effect1_dropShadow_1_1333"/>
<feBlend mode="normal" in="SourceGraphic" in2="effect1_dropShadow_1_1333" result="shape"/>
</filter>
</defs>
</svg>
