<svg width="14" height="13" viewBox="0 0 14 13" fill="none" xmlns="http://www.w3.org/2000/svg">
<path d="M10.8445 0.166181C10.7266 0.166181 10.6073 0.171388 10.4899 0.181775C9.27745 0.289239 8.17197 1.0106 7.36666 2.21691C6.43241 0.866885 4.88816 0 3.40277 0C3.07634 0 2.75291 0.0413515 2.44161 0.123002C1.4796 0.375293 0.695236 1.07697 0.289851 2.04841C-0.159407 3.12462 -0.0820901 4.38527 0.491695 5.33835C1.27971 6.64739 2.63076 7.44639 3.93715 8.21894C4.60818 8.61597 5.30217 9.02611 5.89736 9.49626C6.07463 9.63608 6.29734 9.81835 6.48841 10.0169C6.24733 10.2497 5.77065 11.0234 5.76607 11.0327C5.61627 11.3414 5.4105 11.9941 5.58936 12.4824C5.6658 12.6907 5.8031 12.8417 5.99791 12.931C6.09781 12.9767 6.20295 13 6.31026 13C6.77164 13 7.19899 12.5716 7.47649 12.2124C7.98392 11.5547 8.05988 10.8644 7.70202 10.1597C8.31598 9.61555 8.98393 9.10978 9.6302 8.62032C10.742 7.77845 11.8916 6.90771 12.8063 5.81335C13.2532 5.27855 14.6349 3.39785 13.6583 1.64572C13.142 0.71926 12.0901 0.166181 10.8445 0.166181ZM6.8482 11.481C6.75533 11.6549 6.66159 11.7804 6.56398 11.8605C6.58362 11.6023 6.68407 11.3502 6.74858 11.2116C6.76667 11.1726 6.88532 10.9929 6.97063 10.8726C6.99743 11.0771 6.95701 11.2774 6.8482 11.481ZM5.73726 1.8001C6.02344 2.03112 6.27645 2.29208 6.48926 2.5752C6.51459 2.60896 6.55349 2.67261 6.5988 2.74628C6.85999 3.17259 7.14065 3.58882 7.44446 3.58882C7.59519 3.58882 7.72283 3.48501 7.82372 3.28003C8.46812 1.9726 9.4964 1.1931 10.719 1.08494C10.7901 1.07854 10.8621 1.07558 10.9333 1.07558C11.8687 1.07558 12.6913 1.61201 12.9804 2.41029C13.3612 3.46266 12.7584 4.70974 11.1376 6.22266C10.4417 6.87243 9.66977 7.45666 8.92346 8.02179C8.33763 8.46511 7.73241 8.92332 7.16575 9.41134C6.65614 8.85793 5.9877 8.39434 5.4572 8.04935C5.14248 7.84456 4.80231 7.64428 4.44221 7.43221C2.67181 6.38975 0.66544 5.2082 0.981747 3.00819C1.16256 1.75028 2.11818 0.937484 3.41631 0.937484C3.51169 0.937484 3.60931 0.941915 3.70664 0.951111C4.42047 1.01764 5.14157 1.31923 5.73726 1.8001Z" fill="#14CC60"/>
</svg>
