<svg width="120" height="38" viewBox="0 0 120 38" fill="none" xmlns="http://www.w3.org/2000/svg">
<path d="M8.63323 19.3726C10.4458 19.3726 11.9936 18.685 13.2767 17.3098C14.5599 15.9346 15.2015 14.2494 15.2015 12.254C15.2015 10.2587 14.5599 8.5734 13.2767 7.19822C11.9936 5.82304 10.4458 5.13546 8.63323 5.13546C6.7489 5.13546 5.29528 5.79159 4.27235 7.10384V0.120117H0.799805V18.9951H4.27235V17.4042C5.29528 18.7164 6.7489 19.3726 8.63323 19.3726ZM7.98717 16.056C6.91042 16.056 6.02209 15.7055 5.32219 15.0043C4.6223 14.2854 4.27235 13.3686 4.27235 12.254C4.27235 11.1395 4.6223 10.2272 5.32219 9.51715C6.02209 8.80709 6.91042 8.45206 7.98717 8.45206C9.06394 8.45206 9.95675 8.80709 10.6656 9.51715C11.3745 10.2272 11.7289 11.1395 11.7289 12.254C11.7289 13.3686 11.3745 14.2808 10.6656 14.9908C9.95675 15.7009 9.06394 16.056 7.98717 16.056ZM21.1237 18.9951V12.5506C21.1237 11.2563 21.5409 10.3306 22.3753 9.77331C23.2098 9.21604 24.1565 9.00034 25.2153 9.12616V5.24332C24.3001 5.24332 23.4701 5.45903 22.7253 5.89046C21.9806 6.32189 21.4466 6.96902 21.1237 7.83188V5.51296H17.6511V18.9951H21.1237ZM33.9102 19.3726C36.4944 19.3726 38.4505 18.4108 39.7785 16.4874L36.9789 14.8696C36.2969 15.7683 35.292 16.2177 33.964 16.2177C31.9002 16.2177 30.635 15.3729 30.1685 13.6831H40.3169C40.4067 13.1798 40.4514 12.7034 40.4514 12.254C40.4514 10.2407 39.81 8.55093 38.5268 7.18474C37.2437 5.81855 35.615 5.13546 33.6409 5.13546C31.5592 5.13546 29.8544 5.81406 28.5264 7.17126C27.1983 8.52846 26.5343 10.2227 26.5343 12.254C26.5343 14.3033 27.2073 16.002 28.5533 17.3503C29.8992 18.6985 31.6848 19.3726 33.9102 19.3726ZM36.9789 10.9867H30.1145C30.312 10.1238 30.7158 9.45423 31.326 8.97786C31.9361 8.50149 32.7078 8.26331 33.6409 8.26331C34.4306 8.26331 35.135 8.48802 35.7541 8.93741C36.3733 9.38682 36.7815 10.0699 36.9789 10.9867ZM48.7156 19.3726C50.5999 19.3726 52.0625 18.7164 53.1034 17.4042V18.9951H56.5759V5.51296H53.1034V7.10384C52.0625 5.79159 50.5999 5.13546 48.7156 5.13546C46.9211 5.13546 45.3822 5.82304 44.099 7.19822C42.8159 8.5734 42.1743 10.2587 42.1743 12.254C42.1743 14.2494 42.8159 15.9346 44.099 17.3098C45.3822 18.685 46.9211 19.3726 48.7156 19.3726ZM49.3616 16.056C48.2849 16.056 47.3966 15.7055 46.6967 15.0043C45.9968 14.2854 45.6469 13.3686 45.6469 12.254C45.6469 11.1395 45.9968 10.2272 46.6967 9.51715C47.3966 8.80709 48.2849 8.45206 49.3616 8.45206C50.4384 8.45206 51.3312 8.80709 52.0401 9.51715C52.7489 10.2272 53.1034 11.1395 53.1034 12.254C53.1034 13.3686 52.7489 14.2808 52.0401 14.9908C51.3312 15.7009 50.4384 16.056 49.3616 16.056ZM63.1981 18.9951V12.8742L68.0973 18.9951H72.1351L66.5629 12.1731L71.9736 5.51296H67.8281L63.1981 11.4451V0.120117H59.7255V18.9951H63.1981ZM80.3724 19.3456C82.3464 19.3456 84.0244 18.6625 85.4062 17.2963C86.788 15.9302 87.479 14.2494 87.479 12.254C87.479 10.2587 86.788 8.57789 85.4062 7.21171C84.0244 5.84551 82.3464 5.16243 80.3724 5.16243C78.3983 5.16243 76.7248 5.84551 75.3519 7.21171C73.9791 8.57789 73.2926 10.2587 73.2926 12.254C73.2926 14.2494 73.9791 15.9302 75.3519 17.2963C76.7248 18.6625 78.3983 19.3456 80.3724 19.3456ZM80.3724 17.0537C79.0444 17.0537 77.9226 16.5953 77.0074 15.6785C76.0922 14.7617 75.6346 13.6202 75.6346 12.254C75.6346 10.8878 76.0922 9.74634 77.0074 8.82956C77.9226 7.91277 79.0444 7.45438 80.3724 7.45438C81.7183 7.45438 82.8489 7.91277 83.7641 8.82956C84.6793 9.74634 85.1371 10.8878 85.1371 12.254C85.1371 13.6202 84.6793 14.7617 83.7641 15.6785C82.8489 16.5953 81.7183 17.0537 80.3724 17.0537ZM95.1777 19.3456C97.1339 19.3456 98.5876 18.5816 99.5387 17.0537V18.9951H101.881V5.51296H99.5387V12.6585C99.5387 14.1684 99.1797 15.2875 98.4618 16.0155C97.744 16.7435 96.8019 17.1075 95.6355 17.1075C94.5945 17.1075 93.778 16.8065 93.1857 16.2043C92.5935 15.602 92.2974 14.7527 92.2974 13.6561V5.51296H89.9555V13.791C89.9555 15.4987 90.4311 16.8514 91.3822 17.8491C92.3334 18.8467 93.5985 19.3456 95.1777 19.3456ZM108.26 18.4962C109.212 19.0984 110.71 19.2647 112.756 18.9951V16.8919C111.966 16.9278 111.302 16.9412 110.764 16.9323C110.226 16.9233 109.826 16.7795 109.566 16.5009C109.306 16.2223 109.176 15.7504 109.176 15.0852V7.77796H112.756V5.51296H109.176V1.73797L106.834 2.43904V5.51296H104.169V7.77796H106.834V15.0852C106.834 16.757 107.309 17.894 108.26 18.4962Z" fill="#484848"/>
<path d="M117.234 19.3727C117.786 19.3727 118.243 19.1852 118.608 18.81C118.971 18.4348 119.154 17.9806 119.154 17.4475C119.154 16.9143 118.971 16.4602 118.608 16.085C118.243 15.7099 117.786 15.5222 117.234 15.5222C116.702 15.5222 116.25 15.7099 115.876 16.085C115.502 16.4602 115.315 16.9143 115.315 17.4475C115.315 17.9806 115.502 18.4348 115.876 18.81C116.25 19.1852 116.702 19.3727 117.234 19.3727Z" fill="#14CC60"/>
<path d="M52.1266 25.6311H53.2737V34.3217H52.1266V32.966C51.4777 34.0089 50.5043 34.5303 49.2065 34.5303C48.1521 34.5303 47.3178 34.2116 46.7036 33.5743C46.1011 32.9254 45.7998 32.0564 45.7998 30.9671V25.6311H46.947V30.9671C46.947 31.7435 47.1497 32.3461 47.5553 32.7748C47.9725 33.2035 48.5576 33.4179 49.3108 33.4179C50.1451 33.4179 50.823 33.1572 51.3444 32.6357C51.8658 32.1027 52.1266 31.2858 52.1266 30.185V25.6311Z" fill="#484848"/>
<path d="M59.1883 25.4225C60.2427 25.4225 61.0712 25.747 61.6738 26.3959C62.2879 27.0332 62.595 27.8965 62.595 28.9857V34.3217H61.4478V28.9857C61.4478 28.2093 61.2392 27.6068 60.8221 27.178C60.4165 26.7493 59.8372 26.5349 59.084 26.5349C58.2497 26.5349 57.5718 26.8015 57.0504 27.3345C56.5289 27.8559 56.2682 28.667 56.2682 29.7678V34.3217H55.1211V25.6311H56.2682V26.9869C56.9171 25.944 57.8905 25.4225 59.1883 25.4225Z" fill="#484848"/>
<path d="M65.3983 23.5454C65.2361 23.7076 65.0391 23.7887 64.8073 23.7887C64.5756 23.7887 64.3786 23.7076 64.2164 23.5454C64.0541 23.3832 63.973 23.1862 63.973 22.9544C63.973 22.7227 64.0541 22.5257 64.2164 22.3635C64.3786 22.2012 64.5756 22.1201 64.8073 22.1201C65.0391 22.1201 65.2361 22.2012 65.3983 22.3635C65.5605 22.5257 65.6416 22.7227 65.6416 22.9544C65.6416 23.1862 65.5605 23.3832 65.3983 23.5454ZM64.2337 34.3217V25.6311H65.3809V34.3217H64.2337Z" fill="#484848"/>
<path d="M73.4931 25.6311H74.7098L71.1466 34.3217H69.7561L66.193 25.6311H67.4097L70.4514 33.1224L73.4931 25.6311Z" fill="#484848"/>
<path d="M79.1924 25.4225C80.4786 25.4225 81.5157 25.8803 82.3036 26.7957C83.1032 27.6995 83.5029 28.7713 83.5029 30.0112C83.5029 30.1386 83.4913 30.3182 83.4682 30.55H75.8378C75.9537 31.4306 76.3245 32.1317 76.9502 32.6531C77.5875 33.163 78.3697 33.4179 79.2967 33.4179C79.9572 33.4179 80.525 33.2846 81 33.0181C81.4867 32.74 81.8517 32.3808 82.0951 31.9405L83.1032 32.5315C82.7208 33.1456 82.1993 33.6323 81.5389 33.9915C80.8784 34.3507 80.1252 34.5303 79.2793 34.5303C77.912 34.5303 76.7996 34.1016 75.9421 33.2441C75.0846 32.3866 74.6559 31.2974 74.6559 29.9764C74.6559 28.6786 75.0788 27.5952 75.9247 26.7261C76.7706 25.8571 77.8598 25.4225 79.1924 25.4225ZM79.1924 26.5349C78.2886 26.5349 77.5296 26.8072 76.9155 27.3519C76.3129 27.8849 75.9537 28.5801 75.8378 29.4376H82.321C82.2051 28.5222 81.8517 27.8096 81.2608 27.2997C80.6698 26.7899 79.9803 26.5349 79.1924 26.5349Z" fill="#484848"/>
<path d="M85.8955 27.0738C86.4285 26.0193 87.3439 25.4921 88.6417 25.4921V26.6045C87.8538 26.6045 87.1991 26.8362 86.6776 27.2997C86.1562 27.7632 85.8955 28.4932 85.8955 29.4897V34.3217H84.7483V25.6311H85.8955V27.0738Z" fill="#484848"/>
<path d="M90.1989 27.9081C90.1989 28.302 90.3727 28.6149 90.7203 28.8466C91.0679 29.0784 91.4909 29.258 91.9891 29.3855C92.4874 29.5129 92.9856 29.6578 93.4839 29.82C93.9822 29.9706 94.4051 30.2313 94.7527 30.6021C95.1004 30.9614 95.2742 31.4364 95.2742 32.0274C95.2742 32.769 94.9787 33.3715 94.3877 33.835C93.8084 34.2985 93.0552 34.5303 92.1282 34.5303C91.2939 34.5303 90.5812 34.3449 89.9903 33.9741C89.4109 33.6033 89.0054 33.1224 88.7736 32.5315L89.7469 31.9579C89.9092 32.4098 90.1989 32.769 90.616 33.0355C91.0447 33.2904 91.5488 33.4179 92.1282 33.4179C92.696 33.4179 93.171 33.3078 93.5534 33.0877C93.9358 32.8559 94.127 32.5025 94.127 32.0274C94.127 31.6334 93.9532 31.3206 93.6056 31.0888C93.258 30.8571 92.835 30.6775 92.3368 30.55C91.8385 30.4225 91.3402 30.2835 90.842 30.1329C90.3437 29.9706 89.9208 29.7099 89.5731 29.3507C89.2255 28.9799 89.0517 28.499 89.0517 27.9081C89.0517 27.2012 89.3298 26.6103 89.886 26.1352C90.4538 25.6601 91.1664 25.4225 92.0239 25.4225C92.7307 25.4225 93.3507 25.5848 93.8837 25.9092C94.4167 26.2221 94.8107 26.6508 95.0656 27.1954L94.1096 27.7516C93.7736 26.9405 93.0783 26.5349 92.0239 26.5349C91.5256 26.5349 91.0969 26.6566 90.7377 26.8999C90.3785 27.1317 90.1989 27.4677 90.1989 27.9081Z" fill="#484848"/>
<path d="M97.6882 23.5454C97.5259 23.7076 97.329 23.7887 97.0972 23.7887C96.8655 23.7887 96.6685 23.7076 96.5062 23.5454C96.344 23.3832 96.2629 23.1862 96.2629 22.9544C96.2629 22.7227 96.344 22.5257 96.5062 22.3635C96.6685 22.2012 96.8655 22.1201 97.0972 22.1201C97.329 22.1201 97.5259 22.2012 97.6882 22.3635C97.8504 22.5257 97.9315 22.7227 97.9315 22.9544C97.9315 23.1862 97.8504 23.3832 97.6882 23.5454ZM96.5236 34.3217V25.6311H97.6708V34.3217H96.5236Z" fill="#484848"/>
<path d="M104.132 26.7435H101.629V32.01C101.629 32.4851 101.722 32.8269 101.907 33.0355C102.092 33.2325 102.37 33.3368 102.741 33.3484C103.112 33.3484 103.576 33.3368 104.132 33.3136V34.3217C102.915 34.5071 102 34.4202 101.386 34.061C100.783 33.7018 100.482 33.0181 100.482 32.01V26.7435H98.6567V25.6311H100.482V23.5454L101.629 23.1978V25.6311H104.132V26.7435Z" fill="#484848"/>
<path d="M111.891 25.6311H113.108L109.388 35.1213C109.052 35.9787 108.571 36.6508 107.946 37.1375C107.332 37.6357 106.642 37.8559 105.877 37.798V36.7203C106.92 36.8362 107.714 36.2337 108.259 34.9127L108.485 34.3739L104.591 25.6311H105.808L109.076 32.9138L111.891 25.6311Z" fill="#484848"/>
</svg>
