<svg width="97" height="32" viewBox="0 0 97 32" fill="none" xmlns="http://www.w3.org/2000/svg">
<path d="M7.05021 16.5591C8.51884 16.5591 9.77298 16.002 10.8126 14.8878C11.8523 13.7735 12.3722 12.408 12.3722 10.7913C12.3722 9.17453 11.8523 7.80904 10.8126 6.6948C9.77298 5.58055 8.51884 5.02343 7.05021 5.02343C5.52342 5.02343 4.34561 5.55507 3.51678 6.61833V0.959717H0.703125V16.2533H3.51678V14.9643C4.34561 16.0275 5.52342 16.5591 7.05021 16.5591ZM6.52674 13.8719C5.65429 13.8719 4.93451 13.5878 4.36742 13.0197C3.80033 12.4372 3.51678 11.6943 3.51678 10.7913C3.51678 9.88826 3.80033 9.14905 4.36742 8.57372C4.93451 7.99839 5.65429 7.71073 6.52674 7.71073C7.39919 7.71073 8.1226 7.99839 8.69696 8.57372C9.27132 9.14905 9.5585 9.88826 9.5585 10.7913C9.5585 11.6943 9.27132 12.4335 8.69696 13.0088C8.1226 13.5841 7.39919 13.8719 6.52674 13.8719ZM17.1707 16.2533V11.0316C17.1707 9.9829 17.5088 9.2328 18.1848 8.78128C18.861 8.32975 19.628 8.15497 20.486 8.25692V5.11082C19.7444 5.11082 19.0719 5.28561 18.4684 5.63518C17.865 5.98474 17.4324 6.50909 17.1707 7.20822V5.32931H14.357V16.2533H17.1707ZM27.531 16.5591C29.6249 16.5591 31.2099 15.7799 32.2859 14.2214L30.0174 12.9106C29.4649 13.6388 28.6507 14.0029 27.5746 14.0029C25.9025 14.0029 24.8773 13.3184 24.4993 11.9492H32.7221C32.7948 11.5414 32.8311 11.1554 32.8311 10.7913C32.8311 9.15997 32.3114 7.79084 31.2716 6.68387C30.232 5.57691 28.9124 5.02343 27.3129 5.02343C25.6261 5.02343 24.2448 5.57327 23.1688 6.67295C22.0927 7.77263 21.5547 9.14541 21.5547 10.7913C21.5547 12.4517 22.1 13.8281 23.1906 14.9206C24.2811 16.013 25.7279 16.5591 27.531 16.5591ZM30.0174 9.76443H24.4556C24.6156 9.0653 24.9427 8.52274 25.4371 8.13676C25.9315 7.75078 26.5568 7.55779 27.3129 7.55779C27.9527 7.55779 28.5234 7.73986 29.025 8.10399C29.5268 8.46812 29.8575 9.0216 30.0174 9.76443ZM39.5272 16.5591C41.054 16.5591 42.2391 16.0275 43.0825 14.9643V16.2533H45.8961V5.32931H43.0825V6.61833C42.2391 5.55507 41.054 5.02343 39.5272 5.02343C38.0732 5.02343 36.8263 5.58055 35.7866 6.6948C34.7469 7.80904 34.2271 9.17453 34.2271 10.7913C34.2271 12.408 34.7469 13.7735 35.7866 14.8878C36.8263 16.002 38.0732 16.5591 39.5272 16.5591ZM40.0506 13.8719C39.1783 13.8719 38.4585 13.5878 37.8914 13.0197C37.3243 12.4372 37.0408 11.6943 37.0408 10.7913C37.0408 9.88826 37.3243 9.14905 37.8914 8.57372C38.4585 7.99839 39.1783 7.71073 40.0506 7.71073C40.9231 7.71073 41.6465 7.99839 42.2209 8.57372C42.7952 9.14905 43.0825 9.88826 43.0825 10.7913C43.0825 11.6943 42.7952 12.4335 42.2209 13.0088C41.6465 13.5841 40.9231 13.8719 40.0506 13.8719ZM51.2617 16.2533V11.2938L55.2313 16.2533H58.503L53.9881 10.7257L58.3722 5.32931H55.0133L51.2617 10.1359V0.959717H48.448V16.2533H51.2617ZM65.1773 16.5373C66.7768 16.5373 68.1364 15.9838 69.256 14.8769C70.3756 13.7699 70.9355 12.408 70.9355 10.7913C70.9355 9.17453 70.3756 7.81268 69.256 6.70572C68.1364 5.59876 66.7768 5.04528 65.1773 5.04528C63.5778 5.04528 62.2219 5.59876 61.1094 6.70572C59.9971 7.81268 59.4409 9.17453 59.4409 10.7913C59.4409 12.408 59.9971 13.7699 61.1094 14.8769C62.2219 15.9838 63.5778 16.5373 65.1773 16.5373ZM65.1773 14.6803C64.1013 14.6803 63.1924 14.3088 62.4509 13.566C61.7093 12.8232 61.3385 11.8983 61.3385 10.7913C61.3385 9.68432 61.7093 8.75942 62.4509 8.0166C63.1924 7.27376 64.1013 6.90235 65.1773 6.90235C66.2679 6.90235 67.184 7.27376 67.9255 8.0166C68.667 8.75942 69.0379 9.68432 69.0379 10.7913C69.0379 11.8983 68.667 12.8232 67.9255 13.566C67.184 14.3088 66.2679 14.6803 65.1773 14.6803ZM77.1734 16.5373C78.7584 16.5373 79.9363 15.9182 80.7069 14.6803V16.2533H82.6045V5.32931H80.7069V11.119C80.7069 12.3425 80.416 13.2492 79.8344 13.8391C79.2528 14.4289 78.4894 14.7239 77.5443 14.7239C76.7009 14.7239 76.0393 14.48 75.5594 13.992C75.0796 13.504 74.8396 12.8158 74.8396 11.9273V5.32931H72.9421V12.0366C72.9421 13.4203 73.3275 14.5164 74.0981 15.3248C74.8688 16.1331 75.8939 16.5373 77.1734 16.5373ZM87.7737 15.8491C88.5444 16.337 89.7586 16.4717 91.4163 16.2533V14.5491C90.7765 14.5782 90.2385 14.5891 89.8022 14.5819C89.366 14.5746 89.0424 14.4581 88.8316 14.2323C88.6207 14.0066 88.5154 13.6242 88.5154 13.0853V7.16453H91.4163V5.32931H88.5154V2.27059L86.6178 2.83864V5.32931H84.4584V7.16453H86.6178V13.0853C86.6178 14.4399 87.0031 15.3612 87.7737 15.8491Z" fill="#484848"/>
<path d="M95.0443 16.5598C95.4916 16.5598 95.862 16.4079 96.1574 16.1039C96.4519 15.7999 96.6 15.4319 96.6 14.9999C96.6 14.5679 96.4519 14.1999 96.1574 13.8959C95.862 13.592 95.4916 13.4399 95.0443 13.4399C94.6137 13.4399 94.247 13.592 93.9442 13.8959C93.6414 14.1999 93.4896 14.5679 93.4896 14.9999C93.4896 15.4319 93.6414 15.7999 93.9442 16.1039C94.247 16.4079 94.6137 16.5598 95.0443 16.5598Z" fill="#14CC60"/>
<path d="M42.2877 21.6297H43.2172V28.6713H42.2877V27.5728C41.762 28.4178 40.9733 28.8403 39.9218 28.8403C39.0674 28.8403 38.3914 28.5821 37.8938 28.0658C37.4055 27.54 37.1614 26.8358 37.1614 25.9533V21.6297H38.0909V25.9533C38.0909 26.5823 38.2552 27.0705 38.5838 27.4179C38.9218 27.7653 39.396 27.939 40.0063 27.939C40.6822 27.939 41.2315 27.7278 41.654 27.3053C42.0765 26.8734 42.2877 26.2115 42.2877 25.3195V21.6297Z" fill="#484848"/>
<path d="M48.0095 21.4607C48.8639 21.4607 49.5352 21.7236 50.0234 22.2494C50.521 22.7658 50.7698 23.4652 50.7698 24.3478V28.6713H49.8403V24.3478C49.8403 23.7187 49.6713 23.2305 49.3333 22.8831C49.0047 22.5357 48.5353 22.3621 47.925 22.3621C47.249 22.3621 46.6998 22.578 46.2773 23.0099C45.8548 23.4324 45.6435 24.0896 45.6435 24.9815V28.6713H44.714V21.6297H45.6435V22.7282C46.1693 21.8832 46.958 21.4607 48.0095 21.4607Z" fill="#484848"/>
<path d="M53.0412 19.9397C52.9098 20.0712 52.7502 20.1369 52.5624 20.1369C52.3746 20.1369 52.215 20.0712 52.0836 19.9397C51.9521 19.8083 51.8864 19.6487 51.8864 19.4609C51.8864 19.2731 51.9521 19.1135 52.0836 18.9821C52.215 18.8506 52.3746 18.7849 52.5624 18.7849C52.7502 18.7849 52.9098 18.8506 53.0412 18.9821C53.1727 19.1135 53.2384 19.2731 53.2384 19.4609C53.2384 19.6487 53.1727 19.8083 53.0412 19.9397ZM52.0977 28.6713V21.6297H53.0271V28.6713H52.0977Z" fill="#484848"/>
<path d="M59.6001 21.6297H60.5859L57.6989 28.6713H56.5722L53.6851 21.6297H54.671L57.1355 27.6996L59.6001 21.6297Z" fill="#484848"/>
<path d="M64.218 21.4607C65.2602 21.4607 66.1005 21.8316 66.7389 22.5733C67.3867 23.3056 67.7106 24.1741 67.7106 25.1787C67.7106 25.282 67.7013 25.4275 67.6825 25.6153H61.4999C61.5938 26.3288 61.8943 26.8969 62.4013 27.3193C62.9176 27.7325 63.5514 27.939 64.3025 27.939C64.8377 27.939 65.2977 27.831 65.6827 27.6151C66.077 27.3898 66.3727 27.0987 66.5699 26.7419L67.3867 27.2208C67.0769 27.7184 66.6544 28.1127 66.1192 28.4038C65.5841 28.6948 64.9738 28.8403 64.2884 28.8403C63.1805 28.8403 62.2792 28.493 61.5844 27.7982C60.8897 27.1034 60.5423 26.2209 60.5423 25.1505C60.5423 24.099 60.885 23.2211 61.5704 22.517C62.2557 21.8128 63.1383 21.4607 64.218 21.4607ZM64.218 22.3621C63.4857 22.3621 62.8707 22.5827 62.3731 23.024C61.8849 23.4558 61.5938 24.0192 61.4999 24.714H66.753C66.6591 23.9722 66.3727 23.3948 65.8939 22.9817C65.4151 22.5686 64.8564 22.3621 64.218 22.3621Z" fill="#484848"/>
<path d="M69.6492 22.7986C70.0811 21.9443 70.8228 21.5171 71.8744 21.5171V22.4184C71.2359 22.4184 70.7055 22.6062 70.283 22.9817C69.8605 23.3573 69.6492 23.9488 69.6492 24.7562V28.6713H68.7197V21.6297H69.6492V22.7986Z" fill="#484848"/>
<path d="M73.1361 23.4746C73.1361 23.7938 73.2769 24.0473 73.5586 24.2351C73.8402 24.4229 74.1829 24.5684 74.5866 24.6717C74.9903 24.775 75.3941 24.8923 75.7978 25.0238C76.2015 25.1458 76.5442 25.3571 76.8259 25.6575C77.1075 25.9486 77.2484 26.3335 77.2484 26.8124C77.2484 27.4132 77.0089 27.9015 76.5301 28.277C76.0607 28.6526 75.4504 28.8403 74.6993 28.8403C74.0233 28.8403 73.4459 28.6901 72.9671 28.3897C72.4976 28.0892 72.169 27.6996 71.9812 27.2208L72.7699 26.756C72.9013 27.1222 73.1361 27.4132 73.4741 27.6292C73.8214 27.8357 74.2299 27.939 74.6993 27.939C75.1593 27.939 75.5443 27.8498 75.8541 27.6714C76.1639 27.4837 76.3189 27.1973 76.3189 26.8124C76.3189 26.4931 76.178 26.2396 75.8964 26.0519C75.6147 25.8641 75.272 25.7186 74.8683 25.6153C74.4646 25.512 74.0609 25.3993 73.6571 25.2773C73.2534 25.1458 72.9107 24.9346 72.6291 24.6435C72.3474 24.3431 72.2066 23.9535 72.2066 23.4746C72.2066 22.9019 72.4319 22.4231 72.8826 22.0381C73.3426 21.6532 73.92 21.4607 74.6148 21.4607C75.1875 21.4607 75.6898 21.5922 76.1217 21.8551C76.5536 22.1086 76.8728 22.4559 77.0794 22.8972L76.3048 23.3479C76.0325 22.6907 75.4692 22.3621 74.6148 22.3621C74.2111 22.3621 73.8637 22.4606 73.5726 22.6578C73.2816 22.8456 73.1361 23.1179 73.1361 23.4746Z" fill="#484848"/>
<path d="M79.2043 19.9397C79.0729 20.0712 78.9133 20.1369 78.7255 20.1369C78.5377 20.1369 78.3781 20.0712 78.2467 19.9397C78.1152 19.8083 78.0495 19.6487 78.0495 19.4609C78.0495 19.2731 78.1152 19.1135 78.2467 18.9821C78.3781 18.8506 78.5377 18.7849 78.7255 18.7849C78.9133 18.7849 79.0729 18.8506 79.2043 18.9821C79.3358 19.1135 79.4015 19.2731 79.4015 19.4609C79.4015 19.6487 79.3358 19.8083 79.2043 19.9397ZM78.2607 28.6713V21.6297H79.1902V28.6713H78.2607Z" fill="#484848"/>
<path d="M84.4253 22.5311H82.3973V26.7983C82.3973 27.1832 82.4724 27.4602 82.6226 27.6292C82.7728 27.7888 82.9982 27.8733 83.2986 27.8827C83.5991 27.8827 83.9746 27.8733 84.4253 27.8545V28.6713C83.4394 28.8216 82.6977 28.7511 82.2001 28.4601C81.7119 28.169 81.4678 27.6151 81.4678 26.7983V22.5311H79.9891V21.6297H81.4678V19.9397L82.3973 19.6581V21.6297H84.4253V22.5311Z" fill="#484848"/>
<path d="M90.7125 21.6297H91.6983L88.6845 29.3192C88.4122 30.0139 88.0226 30.5585 87.5156 30.9528C87.018 31.3565 86.4593 31.5349 85.8397 31.488V30.6148C86.6847 30.7087 87.3278 30.2205 87.7691 29.1502L87.9522 28.7136L84.7975 21.6297H85.7833L88.431 27.5306L90.7125 21.6297Z" fill="#484848"/>
</svg>
