<svg width="54" height="54" viewBox="0 0 54 54" fill="none" xmlns="http://www.w3.org/2000/svg">
<g filter="url(#filter0_d_1_1355)">
<rect x="9" y="6" width="36" height="36" rx="10" fill="white"/>
</g>
<path d="M20.8526 32.5891L18.1392 29.8757C18.0271 29.7636 18.0271 29.5819 18.1392 29.4698L19.0555 28.5535L22.1748 31.6728L21.2585 32.5891C21.1464 32.7012 20.9647 32.7012 20.8526 32.5891V32.5891Z" fill="#B163FF"/>
<path d="M19.2283 28.7254L17.2683 26.7654C17.0442 26.5413 17.0442 26.1778 17.2683 25.9537L22.4475 20.7745C22.5532 20.6689 22.6957 20.6086 22.8451 20.6065L27.4129 20.5408L19.2283 28.7254Z" fill="#63A1FF"/>
<path d="M18.4869 24.7346L17.2678 25.9537C17.0437 26.1778 17.0437 26.5412 17.2678 26.7653L19.2278 28.7253L20.8527 27.1005L18.4869 24.7346Z" fill="#B163FF"/>
<path d="M22.0037 31.5017L23.9637 33.4617C24.1878 33.6858 24.5512 33.6858 24.7753 33.4617L29.9546 28.2825C30.0602 28.1769 30.1205 28.0343 30.1226 27.8849L30.1883 23.3171L22.0037 31.5017Z" fill="#63A1FF"/>
<path opacity="0.1" d="M30.1877 23.3162L30.1494 25.9886C29.2725 26.7224 28.0731 26.8731 27.0632 26.4407L30.1877 23.3162Z" fill="black"/>
<path opacity="0.1" d="M30.188 23.3164L30.1653 24.8923L24.4051 30.653L22.7803 32.2778L22.0037 31.5012L23.6285 29.8764L30.188 23.3164Z" fill="black"/>
<path d="M23.629 29.8762L22.0042 31.5011L23.9641 33.4611C24.1883 33.6852 24.5517 33.6852 24.7758 33.4611L25.9948 32.242L23.629 29.8762Z" fill="#B163FF"/>
<path opacity="0.1" d="M22.001 31.5L23.6255 29.8755L24.402 30.652L22.7775 32.2765L22.001 31.5Z" fill="black"/>
<path d="M31.9716 15.6362L35.0904 18.7551L22.1767 31.6688L19.0578 28.55L31.9716 15.6362Z" fill="white"/>
<path d="M31.0744 22.7743L27.3139 26.5349C26.881 26.3942 26.4743 26.1518 26.1306 25.8081C24.9659 24.6435 24.9659 22.7557 26.1306 21.591C27.2952 20.4264 29.1835 20.4264 30.3482 21.591C30.6919 21.9347 30.9338 22.3419 31.0744 22.7743V22.7743Z" fill="#FFEEEE"/>
<path d="M22.1334 25.4749L25.2522 28.5937L24.4538 29.392L21.335 26.2732L22.1334 25.4749Z" fill="#FF7300"/>
<path d="M31.9722 15.6379C33.0435 14.5665 35.1276 13.7571 36.4839 14.246C36.9727 15.6023 36.1629 17.6858 35.0915 18.7572L31.9722 15.6379Z" fill="#B163FF"/>
<path d="M31.9526 19.896C32.5709 19.896 33.072 19.3948 33.072 18.7766C33.072 18.1584 32.5709 17.6572 31.9526 17.6572C31.3344 17.6572 30.8333 18.1584 30.8333 18.7766C30.8333 19.3948 31.3344 19.896 31.9526 19.896Z" fill="#FF6C6C"/>
<path opacity="0.4" d="M32.7448 19.5687C32.308 20.0056 31.5992 20.0059 31.1619 19.5687C31.08 19.4867 31.0133 19.3952 30.9623 19.2979H32.9444C32.8934 19.3951 32.8268 19.4867 32.7448 19.5687Z" fill="white"/>
<path opacity="0.4" d="M33.0456 19.0173H30.8597C30.8351 18.9094 30.8276 18.7971 30.8373 18.6863H33.0681C33.0773 18.7967 33.0694 18.9087 33.0456 19.0173V19.0173Z" fill="white"/>
<path d="M22.175 31.673L19.0557 28.5537L31.9715 15.6379L35.0908 18.7572L22.175 31.673Z" fill="#637BFF"/>
<path d="M28.2395 25.4724C29.8865 25.4724 31.2216 24.1373 31.2216 22.4904C31.2216 20.8434 29.8865 19.5083 28.2395 19.5083C26.5926 19.5083 25.2574 20.8434 25.2574 22.4904C25.2574 24.1373 26.5926 25.4724 28.2395 25.4724Z" fill="#63A1FF"/>
<defs>
<filter id="filter0_d_1_1355" x="0.272727" y="0.181818" width="53.4545" height="53.4545" filterUnits="userSpaceOnUse" color-interpolation-filters="sRGB">
<feFlood flood-opacity="0" result="BackgroundImageFix"/>
<feColorMatrix in="SourceAlpha" type="matrix" values="0 0 0 0 0 0 0 0 0 0 0 0 0 0 0 0 0 0 127 0" result="hardAlpha"/>
<feOffset dy="2.90909"/>
<feGaussianBlur stdDeviation="4.36364"/>
<feColorMatrix type="matrix" values="0 0 0 0 0 0 0 0 0 0 0 0 0 0 0 0 0 0 0.06 0"/>
<feBlend mode="normal" in2="BackgroundImageFix" result="effect1_dropShadow_1_1355"/>
<feBlend mode="normal" in="SourceGraphic" in2="effect1_dropShadow_1_1355" result="shape"/>
</filter>
</defs>
</svg>
