<svg width="18" height="18" viewBox="0 0 18 18" fill="none" xmlns="http://www.w3.org/2000/svg">
<path d="M13.9429 0.218811C13.7914 0.218811 13.638 0.225644 13.487 0.239274C11.9281 0.380299 10.5068 1.32694 9.47142 2.90998C8.27024 1.13834 6.28478 0.000732422 4.37499 0.000732422C3.9553 0.000732422 3.53946 0.0549977 3.13921 0.162147C1.90234 0.493227 0.893874 1.41403 0.372666 2.68884C-0.204952 4.10116 -0.105544 5.7555 0.63218 7.00622C1.64534 8.72406 3.38241 9.77259 5.06205 10.7864C5.92481 11.3074 6.81707 11.8456 7.58231 12.4626C7.81024 12.6461 8.09658 12.8853 8.34225 13.1459C8.03228 13.4514 7.41941 14.4667 7.41352 14.4788C7.22092 14.884 6.95635 15.7405 7.18632 16.3814C7.2846 16.6547 7.46113 16.8528 7.7116 16.9699C7.84005 17.0299 7.97522 17.0606 8.11319 17.0606C8.7064 17.0606 9.25585 16.4984 9.61263 16.027C10.265 15.1639 10.3627 14.2581 9.9026 13.3332C10.692 12.6192 11.5508 11.9554 12.3817 11.3131C13.8111 10.2083 15.2891 9.06568 16.4652 7.62956C17.0398 6.92775 18.8162 4.45972 17.5607 2.1604C16.8969 0.944614 15.5444 0.218811 13.9429 0.218811ZM8.80483 15.0672C8.68543 15.2954 8.5649 15.46 8.4394 15.5652C8.46466 15.2264 8.5938 14.8956 8.67674 14.7136C8.7 14.6625 8.85255 14.4266 8.96224 14.2688C8.9967 14.5372 8.94472 14.8 8.80483 15.0672ZM7.37648 2.363C7.74442 2.66616 8.06972 3.00862 8.34334 3.38015C8.3759 3.42446 8.42591 3.50798 8.48418 3.60467C8.81998 4.16411 9.18083 4.71032 9.57145 4.71032C9.76524 4.71032 9.92935 4.5741 10.0591 4.3051C10.8876 2.58936 12.2097 1.56643 13.7816 1.4245C13.873 1.4161 13.9656 1.41221 14.0571 1.41221C15.2598 1.41221 16.3174 2.11617 16.6891 3.16375C17.1787 4.54477 16.4037 6.1813 14.3198 8.16669C13.425 9.01938 12.4326 9.78607 11.473 10.5277C10.7198 11.1094 9.94167 11.7108 9.21311 12.3512C8.55789 11.6249 7.69848 11.0166 7.0164 10.5638C6.61175 10.2951 6.1744 10.0323 5.71142 9.75398C3.43518 8.38597 0.855565 6.83543 1.26225 3.94836C1.49472 2.29761 2.72337 1.23099 4.3924 1.23099C4.51504 1.23099 4.64054 1.2368 4.76568 1.24887C5.68347 1.33617 6.61059 1.73195 7.37648 2.363Z" fill="#14CC60"/>
</svg>
