<svg width="88" height="88" viewBox="0 0 88 88" fill="none" xmlns="http://www.w3.org/2000/svg">
<g filter="url(#filter0_d_1_544)">
<rect x="9" y="6" width="70" height="70" rx="20" fill="white"/>
</g>
<path d="M59.4277 34.1011V58.2608H26.9561V29.7666L33.9699 36.7795L38.8556 31.8947L50.2449 43.284L59.4277 34.1011Z" fill="#637BFF"/>
<path d="M59.4251 34.1016V58.2612H50.2422V43.2844L59.4251 34.1016Z" fill="#63A1FF"/>
<path d="M33.9699 36.7795V58.2608H26.9561V29.7666L33.9699 36.7795Z" fill="#B163FF"/>
<path d="M49.7835 43.161V44.3889C49.7835 44.6405 49.9874 44.8444 50.239 44.8444C50.4906 44.8444 50.6945 44.6405 50.6945 44.3889L50.6968 43.1477C50.6968 43.1477 50.7485 42.6396 50.2451 42.6396C49.7416 42.6397 49.7835 43.161 49.7835 43.161V43.161Z" fill="#92A3FF"/>
<path d="M27.4112 23.9555C27.4112 23.704 27.2073 23.5 26.9557 23.5C26.704 23.5 26.5002 23.704 26.5002 23.9555V49.5351C26.5002 49.7867 26.704 49.9906 26.9557 49.9906C27.2073 49.9906 27.4112 49.7867 27.4112 49.5351V23.9555Z" fill="#637BFF"/>
<path d="M33.9706 36.1348C33.5151 36.1348 33.5151 36.5423 33.5151 36.5423V37.7142C33.5151 37.9657 33.719 38.1697 33.9706 38.1697C34.2222 38.1697 34.4261 37.9657 34.4261 37.7142V36.5423C34.4261 36.5423 34.4261 36.1348 33.9706 36.1348Z" fill="#92A3FF"/>
<path d="M61.2607 57.8051H50.6941V57.1555C50.6941 56.904 50.4903 56.7 50.2386 56.7C49.987 56.7 49.7831 56.904 49.7831 57.1555V57.8051H34.4253V57.3252C34.4253 57.0736 34.2214 56.8697 33.9698 56.8697C33.7181 56.8697 33.5143 57.0736 33.5143 57.3252V57.8051H27.4113V52.5407C27.4113 52.2892 27.2074 52.0852 26.9558 52.0852C26.7042 52.0852 26.5003 52.2892 26.5003 52.5407V58.2606C26.5003 58.5121 26.7042 58.7161 26.9558 58.7161H61.2607C61.5123 58.7161 61.7162 58.5121 61.7162 58.2606C61.7162 58.0091 61.5123 57.8051 61.2607 57.8051V57.8051Z" fill="#637BFF"/>
<path d="M33.9706 41.1051C34.2222 41.1051 34.4261 40.9011 34.4261 40.6496V39.7143C34.4261 39.4628 34.2222 39.2588 33.9706 39.2588C33.719 39.2588 33.5151 39.4628 33.5151 39.7143V40.6496C33.5151 40.9011 33.7191 41.1051 33.9706 41.1051Z" fill="#92A3FF"/>
<path d="M33.5151 43.5847C33.5151 43.8362 33.719 44.0402 33.9706 44.0402C34.2222 44.0402 34.4261 43.8362 34.4261 43.5847V42.6493C34.4261 42.3978 34.2222 42.1938 33.9706 42.1938C33.719 42.1938 33.5151 42.3978 33.5151 42.6493V43.5847Z" fill="#92A3FF"/>
<path d="M33.5151 54.3901V55.3254C33.5151 55.5769 33.719 55.7809 33.9706 55.7809C34.2222 55.7809 34.4261 55.5769 34.4261 55.3254V54.3901C34.4261 54.1385 34.2222 53.9346 33.9706 53.9346C33.7191 53.9346 33.5151 54.1385 33.5151 54.3901Z" fill="#92A3FF"/>
<path d="M50.6952 50.2194C50.6952 49.9679 50.4913 49.7639 50.2397 49.7639C49.9881 49.7639 49.7842 49.9679 49.7842 50.2194V51.3245C49.7842 51.576 49.9881 51.78 50.2397 51.78C50.4913 51.78 50.6952 51.576 50.6952 51.3245V50.2194Z" fill="#92A3FF"/>
<path d="M50.2397 53.2319C49.9881 53.2319 49.7842 53.4359 49.7842 53.6874V54.7925C49.7842 55.044 49.9881 55.248 50.2397 55.248C50.4913 55.248 50.6952 55.044 50.6952 54.7925V53.6874C50.6952 53.4359 50.4913 53.2319 50.2397 53.2319Z" fill="#92A3FF"/>
<path d="M50.6952 46.7514C50.6952 46.4999 50.4913 46.2959 50.2397 46.2959C49.9881 46.2959 49.7842 46.4999 49.7842 46.7514V47.8564C49.7842 48.108 49.9881 48.3119 50.2397 48.3119C50.4913 48.3119 50.6952 48.108 50.6952 47.8564V46.7514Z" fill="#92A3FF"/>
<defs>
<filter id="filter0_d_1_544" x="0.272727" y="0.181818" width="87.4545" height="87.4545" filterUnits="userSpaceOnUse" color-interpolation-filters="sRGB">
<feFlood flood-opacity="0" result="BackgroundImageFix"/>
<feColorMatrix in="SourceAlpha" type="matrix" values="0 0 0 0 0 0 0 0 0 0 0 0 0 0 0 0 0 0 127 0" result="hardAlpha"/>
<feOffset dy="2.90909"/>
<feGaussianBlur stdDeviation="4.36364"/>
<feColorMatrix type="matrix" values="0 0 0 0 0 0 0 0 0 0 0 0 0 0 0 0 0 0 0.06 0"/>
<feBlend mode="normal" in2="BackgroundImageFix" result="effect1_dropShadow_1_544"/>
<feBlend mode="normal" in="SourceGraphic" in2="effect1_dropShadow_1_544" result="shape"/>
</filter>
</defs>
</svg>
