<svg width="88" height="88" viewBox="0 0 88 88" fill="none" xmlns="http://www.w3.org/2000/svg">
<g filter="url(#filter0_d_1_492)">
<rect x="9" y="6" width="70" height="70" rx="20" fill="white"/>
</g>
<path d="M37.325 49.8945H47.3106V58.276H37.325V49.8945Z" fill="#63A1FF"/>
<path d="M52.3465 60.6H32.291C31.7987 60.6 31.3998 60.2009 31.3998 59.7087V58.5563C31.3998 57.0797 32.5969 55.8826 34.0735 55.8826H50.564C52.0406 55.8826 53.2377 57.0797 53.2377 58.5563V59.7087C53.2377 60.2009 52.8386 60.6 52.3465 60.6Z" fill="#B163FF"/>
<path d="M47.3982 39.8297C44.5235 37.2686 45.1299 32.9609 45.1299 32.9609C46.5194 33.3192 48.4322 33.3341 51.022 32.5122L52.3992 33.2183C53.1961 33.6268 54.1713 33.4081 54.7175 32.6981L55.8223 31.2618C56.1349 30.8554 56.0588 30.2727 55.6524 29.9602L51.7234 26.9381L51.5919 25.8547C51.4879 24.9988 50.919 24.2705 50.1135 23.9624L48.3573 23.2908L49.5559 20.7723C47.5547 20.4115 46.0025 21.465 45.0039 22.4965C41.6473 23.2272 29.7309 26.9209 32.0665 42.2515C32.3223 43.93 33.0709 47.9314 33.4989 50.1909C33.6775 51.134 34.5016 51.8164 35.4615 51.8164H49.0732C52.7945 51.8164 54.7688 47.4106 52.2829 44.6411C51.0314 43.2466 49.4349 41.6442 47.3982 39.8297V39.8297Z" fill="#637BFF"/>
<path opacity="0.3" d="M39.1396 33.1035C39.0788 32.6162 38.6357 32.2695 38.147 32.3292C37.6584 32.3889 37.3108 32.8336 37.3707 33.3221C37.3938 33.511 37.9808 37.9869 41.8041 41.3902C41.9738 41.5414 42.1856 41.6157 42.3963 41.6157C42.6419 41.6157 42.8863 41.5148 43.0622 41.3171C43.3895 40.9494 43.3567 40.3861 42.9891 40.0587C39.6869 37.1193 39.1453 33.149 39.1396 33.1035V33.1035Z" fill="white"/>
<g opacity="0.3">
<path d="M38.3299 48.2087C37.7784 48.2087 37.3311 47.7615 37.3311 47.21V47.187C37.3311 46.6355 37.7784 46.1882 38.3299 46.1882C38.8814 46.1882 39.3286 46.6355 39.3286 47.187V47.21C39.3286 47.7615 38.8814 48.2087 38.3299 48.2087Z" fill="white"/>
</g>
<path opacity="0.3" d="M37.3315 43.8276C37.3315 43.2761 37.7787 42.8289 38.3302 42.8289C38.8817 42.8289 39.329 43.2761 39.329 43.8276V43.8506C39.329 44.4021 38.8817 44.8493 38.3302 44.8493C37.7787 44.8493 37.3315 44.4021 37.3315 43.8506" fill="white"/>
<g opacity="0.3">
<path d="M41.8954 48.2087C41.3439 48.2087 40.8967 47.7615 40.8967 47.21V47.187C40.8967 46.6355 41.3439 46.1882 41.8954 46.1882C42.447 46.1882 42.8942 46.6355 42.8942 47.187V47.21C42.8942 47.7615 42.447 48.2087 41.8954 48.2087Z" fill="white"/>
</g>
<path opacity="0.3" d="M45.4584 48.2087C44.9069 48.2087 44.4596 47.7615 44.4596 47.21V47.187C44.4596 46.6355 44.9069 46.1882 45.4584 46.1882C46.0099 46.1882 46.4571 46.6355 46.4571 47.187V47.21C46.4569 47.7615 46.0099 48.2087 45.4584 48.2087Z" fill="white"/>
<defs>
<filter id="filter0_d_1_492" x="0.272727" y="0.181818" width="87.4545" height="87.4545" filterUnits="userSpaceOnUse" color-interpolation-filters="sRGB">
<feFlood flood-opacity="0" result="BackgroundImageFix"/>
<feColorMatrix in="SourceAlpha" type="matrix" values="0 0 0 0 0 0 0 0 0 0 0 0 0 0 0 0 0 0 127 0" result="hardAlpha"/>
<feOffset dy="2.90909"/>
<feGaussianBlur stdDeviation="4.36364"/>
<feColorMatrix type="matrix" values="0 0 0 0 0 0 0 0 0 0 0 0 0 0 0 0 0 0 0.06 0"/>
<feBlend mode="normal" in2="BackgroundImageFix" result="effect1_dropShadow_1_492"/>
<feBlend mode="normal" in="SourceGraphic" in2="effect1_dropShadow_1_492" result="shape"/>
</filter>
</defs>
</svg>
