<svg width="320" height="660" viewBox="0 0 320 660" fill="none" xmlns="http://www.w3.org/2000/svg">
<mask id="mask0_1_1562" style="mask-type:alpha" maskUnits="userSpaceOnUse" x="0" y="0" width="320" height="660">
<rect width="320" height="660" fill="#F6F8FF"/>
</mask>
<g mask="url(#mask0_1_1562)">
<path opacity="0.03" d="M602.162 429.151C631.199 539.792 631.65 636.553 603.515 719.433C575.381 802.313 518.651 901.317 433.325 1016.44C348 1131.57 252.914 1138.6 148.067 1037.52C43.2205 936.452 -39.5491 818.572 -100.242 683.885C-160.934 549.197 -128.377 443.357 -2.57012 366.362C123.237 289.368 248.218 252.924 372.373 257.03C496.529 261.136 573.125 318.509 602.162 429.151Z" fill="url(#paint0_linear_1_1562)"/>
<path opacity="0.03" d="M463.661 627.079C443.077 702.805 410.244 760.498 365.161 800.158C320.077 839.817 252.474 879.282 162.351 918.553C72.2277 957.823 13.2811 929.473 -14.4889 833.502C-42.259 737.532 -51.1513 639.119 -41.1658 538.265C-31.1803 437.411 24.3877 385.611 125.538 382.864C226.689 380.118 313.476 401.203 385.9 446.118C458.324 491.032 484.244 551.353 463.661 627.079Z" fill="url(#paint1_linear_1_1562)"/>
<path opacity="0.05" d="M353.424 505.404C363.329 554.965 360.991 597.655 346.409 633.475C331.826 669.295 304.209 711.478 263.558 760.024C222.906 808.57 180.784 809.18 137.192 761.855C93.5991 714.529 60.1846 660.369 36.9478 599.373C13.711 538.377 30.8458 492.546 88.3521 461.879C145.858 431.212 201.937 418.409 256.588 423.47C311.24 428.531 343.518 455.843 353.424 505.404Z" fill="url(#paint2_linear_1_1562)"/>
</g>
<defs>
<linearGradient id="paint0_linear_1_1562" x1="-310.089" y1="608.869" x2="741.167" y2="677.278" gradientUnits="userSpaceOnUse">
<stop stop-color="#3682EB"/>
<stop offset="1" stop-color="#5145C1"/>
</linearGradient>
<linearGradient id="paint1_linear_1_1562" x1="-140.288" y1="421.869" x2="461.436" y2="822.181" gradientUnits="userSpaceOnUse">
<stop stop-color="#3682EB"/>
<stop offset="1" stop-color="#5145C1"/>
</linearGradient>
<linearGradient id="paint2_linear_1_1562" x1="-53.6387" y1="560.792" x2="408.22" y2="618.526" gradientUnits="userSpaceOnUse">
<stop stop-color="#3682EB"/>
<stop offset="1" stop-color="#5145C1"/>
</linearGradient>
</defs>
</svg>
