<svg width="30" height="30" viewBox="0 0 30 30" fill="none" xmlns="http://www.w3.org/2000/svg">
<circle opacity="0.1" cx="15" cy="15" r="13.75" fill="white"/>
<path opacity="0.8" fill-rule="evenodd" clip-rule="evenodd" d="M23.2495 10.4429C22.698 10.6879 22.1046 10.8529 21.4821 10.9274C22.1176 10.5464 22.6056 9.94344 22.835 9.22498C22.2411 9.57796 21.5816 9.83344 20.8812 9.97194C20.3197 9.37398 19.5193 9 18.6348 9C16.9354 9 15.5575 10.3779 15.5575 12.0773C15.5575 12.3183 15.585 12.5533 15.6375 12.7787C13.0797 12.6508 10.8123 11.4253 9.29444 9.56346C9.02946 10.0179 8.87797 10.5464 8.87797 11.1104C8.87797 12.1778 9.42043 13.1197 10.2469 13.6717C9.74191 13.6557 9.26794 13.5172 8.85247 13.2867V13.3252C8.85247 14.8166 9.9139 16.06 11.3208 16.3435C11.0628 16.4135 10.7908 16.4515 10.5104 16.4515C10.3119 16.4515 10.1189 16.432 9.9309 16.396C10.3224 17.6184 11.4593 18.5084 12.8057 18.5334C11.7528 19.3583 10.4259 19.8508 8.98396 19.8508C8.73498 19.8508 8.49 19.8363 8.24951 19.8073C9.61142 20.6802 11.2288 21.1902 12.9667 21.1902C18.6268 21.1902 21.7221 16.501 21.7221 12.4348C21.7221 12.3013 21.7196 12.1683 21.7131 12.0368C22.3151 11.6018 22.837 11.0599 23.2495 10.4429Z" fill="white"/>
</svg>
